Mozilla Headline-Condensed ExtraLight.ufo
<glyph name="exclam" format="1">
  <advance width="204"/>
  <unicode hex="0021"/>
  <outline>
    <contour>
      <point x="84" y="162" type="line"/>
      <point x="119" y="162" type="line"/>
      <point x="133" y="639" type="line"/>
      <point x="133" y="690" type="line"/>
      <point x="70" y="690" type="line"/>
      <point x="70" y="639" type="line"/>
    </contour>
    <contour>
      <point x="63" y="0" type="line"/>
      <point x="140" y="0" type="line"/>
      <point x="140" y="76" type="line"/>
      <point x="63" y="76" type="line"/>
    </contour>
  </outline>
</glyph>
<glyph name="percent" format="1">
  <advance width="607"/>
  <unicode hex="0025"/>
  <outline>
    <contour>
      <point x="78" y="0" type="line"/>
      <point x="136" y="0" type="line"/>
      <point x="299" y="322" type="line"/>
      <point x="241" y="322" type="line"/>
    </contour>
    <contour>
      <point x="308" y="368" type="line"/>
      <point x="366" y="368" type="line"/>
      <point x="529" y="690" type="line"/>
      <point x="471" y="690" type="line"/>
    </contour>
    <contour>
      <point x="166" y="360" type="curve" smooth="yes"/>
      <point x="263" y="360"/>
      <point x="302" y="431"/>
      <point x="302" y="533" type="curve" smooth="yes"/>
      <point x="302" y="629"/>
      <point x="263" y="700"/>
      <point x="166" y="700" type="curve" smooth="yes"/>
      <point x="70" y="700"/>
      <point x="31" y="629"/>
      <point x="31" y="533" type="curve" smooth="yes"/>
      <point x="31" y="431"/>
      <point x="70" y="360"/>
    </contour>
    <contour>
      <point x="166" y="409" type="curve" smooth="yes"/>
      <point x="109" y="409"/>
      <point x="87" y="447"/>
      <point x="87" y="511" type="curve" smooth="yes"/>
      <point x="87" y="549" type="line" smooth="yes"/>
      <point x="87" y="613"/>
      <point x="109" y="651"/>
      <point x="166" y="651" type="curve" smooth="yes"/>
      <point x="223" y="651"/>
      <point x="245" y="613"/>
      <point x="245" y="549" type="curve" smooth="yes"/>
      <point x="245" y="511" type="line" smooth="yes"/>
      <point x="245" y="447"/>
      <point x="223" y="409"/>
    </contour>
    <contour>
      <point x="441" y="-10" type="curve" smooth="yes"/>
      <point x="538" y="-10"/>
      <point x="576" y="61"/>
      <point x="576" y="160" type="curve" smooth="yes"/>
      <point x="576" y="259"/>
      <point x="538" y="330"/>
      <point x="441" y="330" type="curve" smooth="yes"/>
      <point x="344" y="330"/>
      <point x="306" y="259"/>
      <point x="306" y="160" type="curve" smooth="yes"/>
      <point x="306" y="61"/>
      <point x="344" y="-10"/>
    </contour>
    <contour>
      <point x="441" y="39" type="curve" smooth="yes"/>
      <point x="384" y="39"/>
      <point x="362" y="77"/>
      <point x="362" y="141" type="curve" smooth="yes"/>
      <point x="362" y="179" type="line" smooth="yes"/>
      <point x="362" y="243"/>
      <point x="384" y="281"/>
      <point x="441" y="281" type="curve" smooth="yes"/>
      <point x="498" y="281"/>
      <point x="520" y="243"/>
      <point x="520" y="179" type="curve" smooth="yes"/>
      <point x="520" y="141" type="line" smooth="yes"/>
      <point x="520" y="77"/>
      <point x="498" y="39"/>
    </contour>
  </outline>
</glyph>
<glyph name="ampersand" format="1">
  <advance width="505"/>
  <unicode hex="0026"/>
  <outline>
    <contour>
      <point x="131" y="477" type="curve" smooth="yes"/>
      <point x="369" y="0" type="line"/>
      <point x="461" y="0" type="line"/>
      <point x="461" y="51" type="line"/>
      <point x="409" y="51" type="line"/>
      <point x="185" y="498" type="line" smooth="yes"/>
      <point x="161" y="538"/>
      <point x="153" y="560"/>
      <point x="153" y="583" type="curve" smooth="yes"/>
      <point x="153" y="620"/>
      <point x="177" y="639"/>
      <point x="221" y="639" type="curve" smooth="yes"/>
      <point x="328" y="639" type="line"/>
      <point x="328" y="494" type="line"/>
      <point x="380" y="494" type="line"/>
      <point x="380" y="690" type="line"/>
      <point x="217" y="690" type="line" smooth="yes"/>
      <point x="140" y="690"/>
      <point x="97" y="652"/>
      <point x="97" y="584" type="curve" smooth="yes"/>
      <point x="97" y="551"/>
      <point x="108" y="515"/>
    </contour>
    <contour>
      <point x="199" y="-10" type="curve" smooth="yes"/>
      <point x="258" y="-10"/>
      <point x="300" y="13"/>
      <point x="319" y="56" type="curve"/>
      <point x="346" y="56" type="line"/>
      <point x="330" y="88" type="line"/>
      <point x="294" y="59"/>
      <point x="251" y="43"/>
      <point x="207" y="43" type="curve" smooth="yes"/>
      <point x="140" y="43"/>
      <point x="110" y="87"/>
      <point x="110" y="194" type="curve" smooth="yes"/>
      <point x="110" y="215" type="line" smooth="yes"/>
      <point x="110" y="292"/>
      <point x="144" y="327"/>
      <point x="210" y="336" type="curve"/>
      <point x="199" y="380" type="line"/>
      <point x="101" y="368"/>
      <point x="48" y="305"/>
      <point x="48" y="203" type="curve" smooth="yes"/>
      <point x="48" y="62"/>
      <point x="99" y="-10"/>
    </contour>
    <contour>
      <point x="375" y="113" type="line"/>
      <point x="419" y="144"/>
      <point x="428" y="189"/>
      <point x="428" y="260" type="curve" smooth="yes"/>
      <point x="428" y="380" type="line"/>
      <point x="376" y="380" type="line"/>
      <point x="376" y="151" type="line"/>
      <point x="341" y="151" type="line"/>
    </contour>
  </outline>
</glyph>
<glyph name="quotesingle" format="1">
  <advance width="165"/>
  <unicode hex="0027"/>
  <outline>
    <contour>
      <point x="67" y="521" type="line"/>
      <point x="98" y="521" type="line"/>
      <point x="112" y="655" type="line"/>
      <point x="112" y="690" type="line"/>
      <point x="53" y="690" type="line"/>
      <point x="53" y="655" type="line"/>
    </contour>
  </outline>
</glyph>
<glyph name="comma" format="1">
  <advance width="191"/>
  <unicode hex="002C"/>
  <outline>
    <contour>
      <point x="53" y="-93" type="line"/>
      <point x="89" y="-93" type="line"/>
      <point x="134" y="0" type="line"/>
      <point x="134" y="76" type="line"/>
      <point x="57" y="76" type="line"/>
      <point x="57" y="0" type="line"/>
      <point x="95" y="0" type="line"/>
    </contour>
  </outline>
</glyph>
<glyph name="hyphen" format="1">
  <advance width="253"/>
  <unicode hex="002D"/>
  <outline>
    <contour>
      <point x="45" y="260" type="line"/>
      <point x="208" y="260" type="line"/>
      <point x="208" y="308" type="line"/>
      <point x="45" y="308" type="line"/>
    </contour>
  </outline>
</glyph>
<glyph name="two" format="1">
  <advance width="438"/>
  <unicode hex="0032"/>
  <outline>
    <contour>
      <point x="51" y="131" type="curve" smooth="yes"/>
      <point x="51" y="0" type="line"/>
      <point x="380" y="0" type="line"/>
      <point x="380" y="200" type="line"/>
      <point x="328" y="200" type="line"/>
      <point x="328" y="51" type="line"/>
      <point x="78" y="51" type="line"/>
      <point x="110" y="27" type="line"/>
      <point x="110" y="141" type="line" smooth="yes"/>
      <point x="110" y="220"/>
      <point x="133" y="254"/>
      <point x="195" y="284" type="curve" smooth="yes"/>
      <point x="274" y="323" type="line" smooth="yes"/>
      <point x="358" y="366"/>
      <point x="388" y="411"/>
      <point x="388" y="500" type="curve" smooth="yes"/>
      <point x="388" y="516" type="line" smooth="yes"/>
      <point x="388" y="636"/>
      <point x="329" y="700"/>
      <point x="220" y="700" type="curve" smooth="yes"/>
      <point x="109" y="700"/>
      <point x="61" y="636"/>
      <point x="51" y="459" type="curve"/>
      <point x="109" y="459" type="line"/>
      <point x="109" y="480" type="line" smooth="yes"/>
      <point x="109" y="596"/>
      <point x="144" y="645"/>
      <point x="220" y="645" type="curve" smooth="yes"/>
      <point x="290" y="645"/>
      <point x="329" y="606"/>
      <point x="329" y="527" type="curve" smooth="yes"/>
      <point x="329" y="489" type="line" smooth="yes"/>
      <point x="329" y="435"/>
      <point x="307" y="403"/>
      <point x="245" y="373" type="curve" smooth="yes"/>
      <point x="166" y="334" type="line" smooth="yes"/>
      <point x="82" y="291"/>
      <point x="51" y="243"/>
    </contour>
  </outline>
</glyph>
<glyph name="three" format="1">
  <advance width="441"/>
  <unicode hex="0033"/>
  <outline>
    <contour>
      <point x="216" y="-10" type="curve" smooth="yes"/>
      <point x="328" y="-10"/>
      <point x="388" y="54"/>
      <point x="388" y="189" type="curve" smooth="yes"/>
      <point x="388" y="288"/>
      <point x="358" y="334"/>
      <point x="300" y="343" type="curve"/>
      <point x="300" y="361" type="line"/>
      <point x="357" y="370"/>
      <point x="386" y="414"/>
      <point x="386" y="508" type="curve" smooth="yes"/>
      <point x="386" y="639"/>
      <point x="327" y="700"/>
      <point x="216" y="700" type="curve" smooth="yes"/>
      <point x="103" y="700"/>
      <point x="55" y="635"/>
      <point x="46" y="459" type="curve"/>
      <point x="106" y="459" type="line"/>
      <point x="106" y="480" type="line" smooth="yes"/>
      <point x="106" y="598"/>
      <point x="141" y="645"/>
      <point x="216" y="645" type="curve" smooth="yes"/>
      <point x="286" y="645"/>
      <point x="325" y="606"/>
      <point x="325" y="529" type="curve" smooth="yes"/>
      <point x="325" y="491" type="line" smooth="yes"/>
      <point x="325" y="414"/>
      <point x="294" y="376"/>
      <point x="234" y="376" type="curve" smooth="yes"/>
      <point x="153" y="376" type="line"/>
      <point x="153" y="328" type="line"/>
      <point x="234" y="328" type="line" smooth="yes"/>
      <point x="295" y="328"/>
      <point x="326" y="290"/>
      <point x="326" y="211" type="curve" smooth="yes"/>
      <point x="326" y="163" type="line" smooth="yes"/>
      <point x="326" y="84"/>
      <point x="287" y="45"/>
      <point x="216" y="45" type="curve" smooth="yes"/>
      <point x="140" y="45"/>
      <point x="105" y="92"/>
      <point x="105" y="210" type="curve" smooth="yes"/>
      <point x="105" y="231" type="line"/>
      <point x="46" y="231" type="line"/>
      <point x="56" y="53"/>
      <point x="103" y="-10"/>
    </contour>
  </outline>
</glyph>
<glyph name="four" format="1">
  <advance width="424"/>
  <unicode hex="0034"/>
  <outline>
    <contour>
      <point x="38" y="188" type="line"/>
      <point x="398" y="188" type="line"/>
      <point x="398" y="238" type="line"/>
      <point x="97" y="238" type="line"/>
      <point x="263" y="690" type="line"/>
      <point x="205" y="690" type="line"/>
      <point x="38" y="238" type="line"/>
    </contour>
    <contour>
      <point x="255" y="0" type="line"/>
      <point x="314" y="0" type="line"/>
      <point x="314" y="412" type="line"/>
      <point x="279" y="412" type="line"/>
      <point x="255" y="312" type="line"/>
    </contour>
  </outline>
</glyph>
<glyph name="five" format="1">
  <advance width="448"/>
  <unicode hex="0035"/>
  <outline>
    <contour>
      <point x="227" y="-10" type="curve" smooth="yes"/>
      <point x="342" y="-10"/>
      <point x="398" y="61"/>
      <point x="398" y="223" type="curve" smooth="yes"/>
      <point x="398" y="378"/>
      <point x="344" y="449"/>
      <point x="243" y="449" type="curve" smooth="yes"/>
      <point x="183" y="449"/>
      <point x="143" y="423"/>
      <point x="127" y="376" type="curve"/>
      <point x="109" y="376" type="line"/>
      <point x="116" y="439"/>
      <point x="119" y="471"/>
      <point x="119" y="502" type="curve" smooth="yes"/>
      <point x="119" y="639" type="line"/>
      <point x="333" y="639" type="line"/>
      <point x="333" y="494" type="line"/>
      <point x="384" y="494" type="line"/>
      <point x="384" y="690" type="line"/>
      <point x="61" y="690" type="line"/>
      <point x="61" y="323" type="line"/>
      <point x="121" y="323" type="line"/>
      <point x="132" y="351"/>
      <point x="161" y="397"/>
      <point x="225" y="397" type="curve" smooth="yes"/>
      <point x="302" y="397"/>
      <point x="337" y="349"/>
      <point x="337" y="232" type="curve" smooth="yes"/>
      <point x="337" y="210" type="line" smooth="yes"/>
      <point x="337" y="93"/>
      <point x="304" y="45"/>
      <point x="227" y="45" type="curve" smooth="yes"/>
      <point x="151" y="45"/>
      <point x="116" y="92"/>
      <point x="116" y="208" type="curve" smooth="yes"/>
      <point x="116" y="231" type="line"/>
      <point x="56" y="231" type="line"/>
      <point x="66" y="53"/>
      <point x="114" y="-10"/>
    </contour>
  </outline>
</glyph>
<glyph name="eight" format="1">
  <advance width="454"/>
  <unicode hex="0038"/>
  <outline>
    <contour>
      <point x="226" y="-10" type="curve" smooth="yes"/>
      <point x="341" y="-10"/>
      <point x="402" y="54"/>
      <point x="402" y="189" type="curve" smooth="yes"/>
      <point x="402" y="288"/>
      <point x="372" y="334"/>
      <point x="313" y="343" type="curve"/>
      <point x="313" y="361" type="line"/>
      <point x="371" y="370"/>
      <point x="398" y="414"/>
      <point x="398" y="508" type="curve" smooth="yes"/>
      <point x="398" y="639"/>
      <point x="339" y="700"/>
      <point x="226" y="700" type="curve" smooth="yes"/>
      <point x="114" y="700"/>
      <point x="54" y="639"/>
      <point x="54" y="508" type="curve" smooth="yes"/>
      <point x="54" y="414"/>
      <point x="82" y="370"/>
      <point x="140" y="361" type="curve"/>
      <point x="140" y="343" type="line"/>
      <point x="81" y="334"/>
      <point x="51" y="288"/>
      <point x="51" y="189" type="curve" smooth="yes"/>
      <point x="51" y="54"/>
      <point x="112" y="-10"/>
    </contour>
    <contour>
      <point x="226" y="45" type="curve" smooth="yes"/>
      <point x="152" y="45"/>
      <point x="113" y="83"/>
      <point x="113" y="162" type="curve" smooth="yes"/>
      <point x="113" y="211" type="line" smooth="yes"/>
      <point x="113" y="291"/>
      <point x="152" y="329"/>
      <point x="226" y="329" type="curve" smooth="yes"/>
      <point x="301" y="329"/>
      <point x="340" y="291"/>
      <point x="340" y="211" type="curve" smooth="yes"/>
      <point x="340" y="162" type="line" smooth="yes"/>
      <point x="340" y="83"/>
      <point x="301" y="45"/>
    </contour>
    <contour>
      <point x="226" y="375" type="curve" smooth="yes"/>
      <point x="153" y="375"/>
      <point x="115" y="413"/>
      <point x="115" y="491" type="curve" smooth="yes"/>
      <point x="115" y="530" type="line" smooth="yes"/>
      <point x="115" y="608"/>
      <point x="153" y="645"/>
      <point x="226" y="645" type="curve" smooth="yes"/>
      <point x="300" y="645"/>
      <point x="337" y="608"/>
      <point x="337" y="530" type="curve" smooth="yes"/>
      <point x="337" y="491" type="line" smooth="yes"/>
      <point x="337" y="413"/>
      <point x="300" y="375"/>
    </contour>
  </outline>
</glyph>
<glyph name="nine" format="1">
  <advance width="450"/>
  <unicode hex="0039"/>
  <outline>
    <contour>
      <point x="221" y="700" type="curve" smooth="yes"/>
      <point x="105" y="700"/>
      <point x="47" y="629"/>
      <point x="47" y="467" type="curve" smooth="yes"/>
      <point x="47" y="312"/>
      <point x="102" y="241"/>
      <point x="203" y="241" type="curve" smooth="yes"/>
      <point x="265" y="241"/>
      <point x="305" y="267"/>
      <point x="325" y="320" type="curve"/>
      <point x="342" y="320" type="line"/>
      <point x="336" y="262"/>
      <point x="333" y="231"/>
      <point x="333" y="202" type="curve" smooth="yes"/>
      <point x="333" y="194" type="line" smooth="yes"/>
      <point x="333" y="94"/>
      <point x="295" y="45"/>
      <point x="223" y="45" type="curve" smooth="yes"/>
      <point x="150" y="45"/>
      <point x="117" y="99"/>
      <point x="117" y="184" type="curve" smooth="yes"/>
      <point x="117" y="184" type="line"/>
      <point x="58" y="184" type="line"/>
      <point x="73" y="42"/>
      <point x="122" y="-10"/>
      <point x="223" y="-10" type="curve" smooth="yes"/>
      <point x="352" y="-10"/>
      <point x="398" y="74"/>
      <point x="398" y="345" type="curve" smooth="yes"/>
      <point x="398" y="617"/>
      <point x="351" y="700"/>
    </contour>
    <contour>
      <point x="220" y="645" type="curve" smooth="yes"/>
      <point x="296" y="645"/>
      <point x="331" y="596"/>
      <point x="331" y="480" type="curve" smooth="yes"/>
      <point x="331" y="458" type="line" smooth="yes"/>
      <point x="331" y="342"/>
      <point x="296" y="293"/>
      <point x="220" y="293" type="curve" smooth="yes"/>
      <point x="143" y="293"/>
      <point x="109" y="341"/>
      <point x="109" y="458" type="curve" smooth="yes"/>
      <point x="109" y="480" type="line" smooth="yes"/>
      <point x="109" y="597"/>
      <point x="143" y="645"/>
    </contour>
  </outline>
</glyph>
<glyph name="question" format="1">
  <advance width="394"/>
  <unicode hex="003F"/>
  <outline>
    <contour>
      <point x="164" y="255" type="curve" smooth="yes"/>
      <point x="167" y="162" type="line"/>
      <point x="202" y="162" type="line"/>
      <point x="205" y="237" type="line" smooth="yes"/>
      <point x="207" y="278"/>
      <point x="222" y="304"/>
      <point x="256" y="324" type="curve" smooth="yes"/>
      <point x="330" y="367"/>
      <point x="359" y="413"/>
      <point x="359" y="497" type="curve" smooth="yes"/>
      <point x="359" y="525" type="line" smooth="yes"/>
      <point x="359" y="641"/>
      <point x="304" y="700"/>
      <point x="195" y="700" type="curve" smooth="yes"/>
      <point x="86" y="700"/>
      <point x="39" y="638"/>
      <point x="29" y="464" type="curve"/>
      <point x="88" y="464" type="line"/>
      <point x="88" y="484" type="line" smooth="yes"/>
      <point x="88" y="598"/>
      <point x="122" y="645"/>
      <point x="195" y="645" type="curve" smooth="yes"/>
      <point x="263" y="645"/>
      <point x="300" y="607"/>
      <point x="300" y="529" type="curve" smooth="yes"/>
      <point x="300" y="492" type="line" smooth="yes"/>
      <point x="300" y="437"/>
      <point x="281" y="411"/>
      <point x="227" y="374" type="curve" smooth="yes"/>
      <point x="178" y="336"/>
      <point x="162" y="309"/>
    </contour>
    <contour>
      <point x="147" y="0" type="line"/>
      <point x="223" y="0" type="line"/>
      <point x="223" y="76" type="line"/>
      <point x="147" y="76" type="line"/>
    </contour>
  </outline>
</glyph>
<glyph name="at" format="1">
  <advance width="669"/>
  <unicode hex="0040"/>
  <outline>
    <contour>
      <point x="333" y="-69" type="curve" smooth="yes"/>
      <point x="541" y="-69" type="line"/>
      <point x="541" y="-18" type="line"/>
      <point x="333" y="-18" type="line" smooth="yes"/>
      <point x="180" y="-18"/>
      <point x="98" y="81"/>
      <point x="98" y="265" type="curve" smooth="yes"/>
      <point x="98" y="343" type="line" smooth="yes"/>
      <point x="98" y="527"/>
      <point x="180" y="626"/>
      <point x="333" y="626" type="curve" smooth="yes"/>
      <point x="487" y="626"/>
      <point x="568" y="527"/>
      <point x="568" y="343" type="curve" smooth="yes"/>
      <point x="568" y="265" type="line" smooth="yes"/>
      <point x="568" y="166"/>
      <point x="543" y="113"/>
      <point x="495" y="113" type="curve" smooth="yes"/>
      <point x="471" y="113"/>
      <point x="460" y="126"/>
      <point x="460" y="154" type="curve" smooth="yes"/>
      <point x="460" y="379" type="line" smooth="yes"/>
      <point x="460" y="480"/>
      <point x="418" y="529"/>
      <point x="333" y="529" type="curve" smooth="yes"/>
      <point x="254" y="529"/>
      <point x="214" y="487"/>
      <point x="203" y="385" type="curve"/>
      <point x="258" y="385" type="line"/>
      <point x="258" y="387" type="line" smooth="yes"/>
      <point x="258" y="446"/>
      <point x="279" y="481"/>
      <point x="332" y="481" type="curve" smooth="yes"/>
      <point x="383" y="481"/>
      <point x="405" y="450"/>
      <point x="405" y="374" type="curve" smooth="yes"/>
      <point x="405" y="312" type="line"/>
      <point x="405" y="303" type="line"/>
      <point x="405" y="216" type="line" smooth="yes"/>
      <point x="405" y="146"/>
      <point x="377" y="113"/>
      <point x="324" y="113" type="curve" smooth="yes"/>
      <point x="275" y="113"/>
      <point x="253" y="140"/>
      <point x="253" y="194" type="curve" smooth="yes"/>
      <point x="253" y="197" type="line" smooth="yes"/>
      <point x="253" y="250"/>
      <point x="274" y="273"/>
      <point x="328" y="280" type="curve" smooth="yes"/>
      <point x="405" y="290" type="line"/>
      <point x="405" y="331" type="line"/>
      <point x="317" y="319" type="line" smooth="yes"/>
      <point x="234" y="308"/>
      <point x="196" y="267"/>
      <point x="196" y="188" type="curve" smooth="yes"/>
      <point x="196" y="108"/>
      <point x="236" y="65"/>
      <point x="305" y="65" type="curve" smooth="yes"/>
      <point x="352" y="65"/>
      <point x="384" y="84"/>
      <point x="400" y="135" type="curve"/>
      <point x="416" y="135" type="line"/>
      <point x="418" y="89"/>
      <point x="446" y="65"/>
      <point x="494" y="65" type="curve" smooth="yes"/>
      <point x="580" y="65"/>
      <point x="624" y="144"/>
      <point x="624" y="304" type="curve" smooth="yes"/>
      <point x="624" y="547"/>
      <point x="523" y="677"/>
      <point x="333" y="677" type="curve" smooth="yes"/>
      <point x="144" y="677"/>
      <point x="42" y="547"/>
      <point x="42" y="304" type="curve" smooth="yes"/>
      <point x="42" y="61"/>
      <point x="144" y="-69"/>
    </contour>
  </outline>
</glyph>
<glyph name="A" format="1">
  <advance width="438"/>
  <unicode hex="0041"/>
  <outline>
    <contour>
      <point x="31" y="0" type="line"/>
      <point x="91" y="0" type="line"/>
      <point x="211" y="635" type="line"/>
      <point x="229" y="635" type="line"/>
      <point x="348" y="0" type="line"/>
      <point x="410" y="0" type="line"/>
      <point x="277" y="690" type="line"/>
      <point x="164" y="690" type="line"/>
    </contour>
    <contour>
      <point x="96" y="189" type="line"/>
      <point x="343" y="189" type="line"/>
      <point x="339" y="237" type="line"/>
      <point x="101" y="237" type="line"/>
    </contour>
    <contour>
      <point x="94" y="639" type="line"/>
      <point x="193" y="639" type="line"/>
      <point x="193" y="690" type="line"/>
      <point x="94" y="690" type="line"/>
    </contour>
    <contour>
      <point x="410" y="0" type="move" name="ogonek"/>
    </contour>
    <contour>
      <point x="218" y="690" type="move" name="top"/>
    </contour>
  </outline>
</glyph>
<glyph name="D" format="1">
  <advance width="477"/>
  <unicode hex="0044"/>
  <outline>
    <contour>
      <point x="77" y="0" type="line"/>
      <point x="243" y="0" type="line" smooth="yes"/>
      <point x="379" y="0"/>
      <point x="428" y="76"/>
      <point x="428" y="345" type="curve" smooth="yes"/>
      <point x="428" y="614"/>
      <point x="379" y="690"/>
      <point x="243" y="690" type="curve" smooth="yes"/>
      <point x="17" y="690" type="line"/>
      <point x="17" y="639" type="line"/>
      <point x="77" y="639" type="line"/>
    </contour>
    <contour>
      <point x="239" y="51" type="curve" smooth="yes"/>
      <point x="136" y="51" type="line"/>
      <point x="136" y="639" type="line"/>
      <point x="239" y="639" type="line" smooth="yes"/>
      <point x="327" y="639"/>
      <point x="364" y="592"/>
      <point x="364" y="454" type="curve" smooth="yes"/>
      <point x="364" y="236" type="line" smooth="yes"/>
      <point x="364" y="98"/>
      <point x="327" y="51"/>
    </contour>
  </outline>
</glyph>
<glyph name="E" format="1">
  <advance width="427"/>
  <unicode hex="0045"/>
  <outline>
    <contour>
      <point x="324" y="494" type="line"/>
      <point x="375" y="494" type="line"/>
      <point x="375" y="690" type="line"/>
      <point x="17" y="690" type="line"/>
      <point x="17" y="639" type="line"/>
      <point x="76" y="639" type="line"/>
      <point x="76" y="0" type="line"/>
      <point x="379" y="0" type="line"/>
      <point x="379" y="200" type="line"/>
      <point x="328" y="200" type="line"/>
      <point x="328" y="51" type="line"/>
      <point x="136" y="51" type="line"/>
      <point x="136" y="328" type="line"/>
      <point x="304" y="328" type="line"/>
      <point x="304" y="376" type="line"/>
      <point x="136" y="376" type="line"/>
      <point x="136" y="639" type="line"/>
      <point x="324" y="639" type="line"/>
    </contour>
    <contour>
      <point x="379" y="0" type="move" name="ogonek"/>
    </contour>
    <contour>
      <point x="213" y="690" type="move" name="top"/>
    </contour>
  </outline>
</glyph>
<glyph name="M" format="1">
  <advance width="669"/>
  <unicode hex="004D"/>
  <outline>
    <contour>
      <point x="71" y="0" type="line"/>
      <point x="129" y="0" type="line"/>
      <point x="129" y="635" type="line"/>
      <point x="147" y="635" type="line"/>
      <point x="308" y="0" type="line"/>
      <point x="359" y="0" type="line"/>
      <point x="520" y="635" type="line"/>
      <point x="537" y="635" type="line"/>
      <point x="537" y="0" type="line"/>
      <point x="597" y="0" type="line"/>
      <point x="597" y="690" type="line"/>
      <point x="480" y="690" type="line"/>
      <point x="343" y="155" type="line"/>
      <point x="325" y="155" type="line"/>
      <point x="188" y="690" type="line"/>
      <point x="71" y="690" type="line"/>
    </contour>
  </outline>
</glyph>
<glyph name="N" format="1">
  <advance width="488"/>
  <unicode hex="004E"/>
  <outline>
    <contour>
      <point x="77" y="0" type="line"/>
      <point x="134" y="0" type="line"/>
      <point x="134" y="492" type="line" smooth="yes"/>
      <point x="134" y="523"/>
      <point x="131" y="555"/>
      <point x="124" y="618" type="curve"/>
      <point x="142" y="618" type="line"/>
      <point x="361" y="0" type="line"/>
      <point x="417" y="0" type="line"/>
      <point x="417" y="690" type="line"/>
      <point x="359" y="690" type="line"/>
      <point x="359" y="326" type="line" smooth="yes"/>
      <point x="359" y="295"/>
      <point x="362" y="263"/>
      <point x="369" y="200" type="curve"/>
      <point x="351" y="200" type="line"/>
      <point x="171" y="690" type="line"/>
      <point x="17" y="690" type="line"/>
      <point x="17" y="639" type="line"/>
      <point x="77" y="639" type="line"/>
    </contour>
    <contour>
      <point x="247" y="690" type="move" name="top"/>
    </contour>
  </outline>
</glyph>
<glyph name="O" format="1">
  <advance width="475"/>
  <unicode hex="004F"/>
  <outline>
    <contour>
      <point x="238" y="-10" type="curve" smooth="yes"/>
      <point x="372" y="-10"/>
      <point x="427" y="79"/>
      <point x="427" y="345" type="curve" smooth="yes"/>
      <point x="427" y="611"/>
      <point x="372" y="700"/>
      <point x="238" y="700" type="curve" smooth="yes"/>
      <point x="103" y="700"/>
      <point x="48" y="611"/>
      <point x="48" y="345" type="curve" smooth="yes"/>
      <point x="48" y="79"/>
      <point x="103" y="-10"/>
    </contour>
    <contour>
      <point x="238" y="45" type="curve" smooth="yes"/>
      <point x="149" y="45"/>
      <point x="112" y="101"/>
      <point x="112" y="239" type="curve" smooth="yes"/>
      <point x="112" y="451" type="line" smooth="yes"/>
      <point x="112" y="589"/>
      <point x="149" y="645"/>
      <point x="238" y="645" type="curve" smooth="yes"/>
      <point x="326" y="645"/>
      <point x="364" y="589"/>
      <point x="364" y="451" type="curve" smooth="yes"/>
      <point x="364" y="239" type="line" smooth="yes"/>
      <point x="364" y="101"/>
      <point x="326" y="45"/>
    </contour>
    <contour>
      <point x="234" y="690" type="move" name="top"/>
    </contour>
  </outline>
</glyph>
<glyph name="P" format="1">
  <advance width="442"/>
  <unicode hex="0050"/>
  <outline>
    <contour>
      <point x="78" y="0" type="line"/>
      <point x="137" y="0" type="line"/>
      <point x="137" y="305" type="line"/>
      <point x="259" y="305" type="line" smooth="yes"/>
      <point x="359" y="305"/>
      <point x="408" y="365"/>
      <point x="408" y="497" type="curve" smooth="yes"/>
      <point x="408" y="629"/>
      <point x="359" y="690"/>
      <point x="258" y="690" type="curve" smooth="yes"/>
      <point x="18" y="690" type="line"/>
      <point x="18" y="639" type="line"/>
      <point x="78" y="639" type="line"/>
    </contour>
    <contour>
      <point x="253" y="354" type="curve" smooth="yes"/>
      <point x="137" y="354" type="line"/>
      <point x="137" y="639" type="line"/>
      <point x="253" y="639" type="line" smooth="yes"/>
      <point x="316" y="639"/>
      <point x="347" y="605"/>
      <point x="347" y="533" type="curve" smooth="yes"/>
      <point x="347" y="460" type="line" smooth="yes"/>
      <point x="347" y="389"/>
      <point x="316" y="354"/>
    </contour>
  </outline>
</glyph>
<glyph name="Q" format="1">
  <advance width="475"/>
  <unicode hex="0051"/>
  <outline>
    <contour>
      <point x="254" y="-132" type="curve" smooth="yes"/>
      <point x="384" y="-132" type="line"/>
      <point x="384" y="-83" type="line"/>
      <point x="267" y="-83" type="line"/>
      <point x="267" y="-8" type="line"/>
      <point x="379" y="5"/>
      <point x="427" y="100"/>
      <point x="427" y="345" type="curve" smooth="yes"/>
      <point x="427" y="611"/>
      <point x="372" y="700"/>
      <point x="238" y="700" type="curve" smooth="yes"/>
      <point x="103" y="700"/>
      <point x="48" y="611"/>
      <point x="48" y="345" type="curve" smooth="yes"/>
      <point x="48" y="79"/>
      <point x="103" y="-10"/>
      <point x="238" y="-10" type="curve"/>
      <point x="209" y="23" type="line"/>
      <point x="209" y="-87" type="line" smooth="yes"/>
      <point x="209" y="-117"/>
      <point x="224" y="-132"/>
    </contour>
    <contour>
      <point x="238" y="45" type="curve" smooth="yes"/>
      <point x="149" y="45"/>
      <point x="112" y="101"/>
      <point x="112" y="239" type="curve" smooth="yes"/>
      <point x="112" y="451" type="line" smooth="yes"/>
      <point x="112" y="589"/>
      <point x="149" y="645"/>
      <point x="238" y="645" type="curve" smooth="yes"/>
      <point x="326" y="645"/>
      <point x="364" y="589"/>
      <point x="364" y="451" type="curve" smooth="yes"/>
      <point x="364" y="239" type="line" smooth="yes"/>
      <point x="364" y="101"/>
      <point x="326" y="45"/>
    </contour>
    <contour>
      <point x="238" y="690" type="move" name="top"/>
    </contour>
  </outline>
</glyph>
<glyph name="T" format="1">
  <advance width="434"/>
  <unicode hex="0054"/>
  <outline>
    <contour>
      <point x="187" y="0" type="line"/>
      <point x="247" y="0" type="line"/>
      <point x="247" y="639" type="line"/>
      <point x="348" y="639" type="line"/>
      <point x="348" y="494" type="line"/>
      <point x="400" y="494" type="line"/>
      <point x="400" y="690" type="line"/>
      <point x="35" y="690" type="line"/>
      <point x="35" y="494" type="line"/>
      <point x="87" y="494" type="line"/>
      <point x="87" y="639" type="line"/>
      <point x="187" y="639" type="line"/>
    </contour>
  </outline>
</glyph>
<glyph name="V" format="1">
  <advance width="434"/>
  <unicode hex="0056"/>
  <outline>
    <contour>
      <point x="160" y="0" type="line"/>
      <point x="273" y="0" type="line"/>
      <point x="406" y="690" type="line"/>
      <point x="346" y="690" type="line"/>
      <point x="227" y="55" type="line"/>
      <point x="209" y="55" type="line"/>
      <point x="89" y="690" type="line"/>
      <point x="27" y="690" type="line"/>
    </contour>
  </outline>
</glyph>
<glyph name="Y" format="1">
  <advance width="419"/>
  <unicode hex="0059"/>
  <outline>
    <contour>
      <point x="111" y="0" type="line"/>
      <point x="308" y="0" type="line"/>
      <point x="308" y="51" type="line"/>
      <point x="240" y="51" type="line"/>
      <point x="240" y="283" type="line"/>
      <point x="401" y="690" type="line"/>
      <point x="340" y="690" type="line"/>
      <point x="220" y="379" type="line"/>
      <point x="202" y="379" type="line"/>
      <point x="81" y="690" type="line"/>
      <point x="18" y="690" type="line"/>
      <point x="180" y="283" type="line"/>
      <point x="180" y="51" type="line"/>
      <point x="111" y="51" type="line"/>
    </contour>
    <contour>
      <point x="211" y="690" type="move" name="top"/>
    </contour>
  </outline>
</glyph>
<glyph name="Z" format="1">
  <advance width="393"/>
  <unicode hex="005A"/>
  <outline>
    <contour>
      <point x="35" y="0" type="line"/>
      <point x="357" y="0" type="line"/>
      <point x="357" y="51" type="line"/>
      <point x="101" y="51" type="line"/>
      <point x="356" y="639" type="line"/>
      <point x="356" y="690" type="line"/>
      <point x="36" y="690" type="line"/>
      <point x="36" y="639" type="line"/>
      <point x="291" y="639" type="line"/>
      <point x="35" y="51" type="line"/>
    </contour>
    <contour>
      <point x="196" y="690" type="move" name="top"/>
    </contour>
  </outline>
</glyph>
<glyph name="bracketright" format="1">
  <advance width="243"/>
  <unicode hex="005D"/>
  <outline>
    <contour>
      <point x="173" y="782" type="line"/>
      <point x="28" y="782" type="line"/>
      <point x="28" y="733" type="line"/>
      <point x="117" y="733" type="line"/>
      <point x="117" y="-43" type="line"/>
      <point x="28" y="-43" type="line"/>
      <point x="28" y="-92" type="line"/>
      <point x="173" y="-92" type="line"/>
    </contour>
  </outline>
</glyph>
<glyph name="f" format="1">
  <advance width="272"/>
  <unicode hex="0066"/>
  <outline>
    <contour>
      <point x="93" y="645" type="curve" smooth="yes"/>
      <point x="93" y="0" type="line"/>
      <point x="150" y="0" type="line"/>
      <point x="150" y="641" type="line"/>
      <point x="253" y="641" type="line"/>
      <point x="253" y="690" type="line"/>
      <point x="137" y="690" type="line" smooth="yes"/>
      <point x="108" y="690"/>
      <point x="93" y="675"/>
    </contour>
    <contour>
      <point x="28" y="0" type="line"/>
      <point x="240" y="0" type="line"/>
      <point x="240" y="49" type="line"/>
      <point x="28" y="49" type="line"/>
    </contour>
    <contour>
      <point x="23" y="485" type="line"/>
      <point x="253" y="485" type="line"/>
      <point x="253" y="534" type="line"/>
      <point x="23" y="534" type="line"/>
    </contour>
  </outline>
</glyph>
<glyph name="h" format="1">
  <advance width="435"/>
  <unicode hex="0068"/>
  <outline>
    <contour>
      <point x="65" y="0" type="line"/>
      <point x="123" y="0" type="line"/>
      <point x="123" y="353" type="line" smooth="yes"/>
      <point x="123" y="452"/>
      <point x="150" y="491"/>
      <point x="216" y="491" type="curve" smooth="yes"/>
      <point x="282" y="491"/>
      <point x="308" y="452"/>
      <point x="308" y="353" type="curve" smooth="yes"/>
      <point x="308" y="0" type="line"/>
      <point x="419" y="0" type="line"/>
      <point x="419" y="49" type="line"/>
      <point x="366" y="49" type="line"/>
      <point x="366" y="365" type="line" smooth="yes"/>
      <point x="366" y="487"/>
      <point x="325" y="544"/>
      <point x="239" y="544" type="curve" smooth="yes"/>
      <point x="184" y="544"/>
      <point x="149" y="518"/>
      <point x="131" y="467" type="curve"/>
      <point x="113" y="467" type="line"/>
      <point x="120" y="530"/>
      <point x="123" y="562"/>
      <point x="123" y="593" type="curve" smooth="yes"/>
      <point x="123" y="690" type="line"/>
      <point x="12" y="690" type="line"/>
      <point x="12" y="641" type="line"/>
      <point x="65" y="641" type="line"/>
    </contour>
  </outline>
</glyph>
<glyph name="i" format="1">
  <advance width="207"/>
  <unicode hex="0069"/>
  <outline>
    <contour>
      <point x="81" y="0" type="line"/>
      <point x="139" y="0" type="line"/>
      <point x="139" y="534" type="line"/>
      <point x="18" y="534" type="line"/>
      <point x="18" y="485" type="line"/>
      <point x="81" y="485" type="line"/>
    </contour>
    <contour>
      <point x="70" y="617" type="line"/>
      <point x="145" y="617" type="line"/>
      <point x="145" y="690" type="line"/>
      <point x="70" y="690" type="line"/>
    </contour>
  </outline>
</glyph>
<glyph name="l" format="1">
  <advance width="205"/>
  <unicode hex="006C"/>
  <outline>
    <contour>
      <point x="75" y="0" type="line"/>
      <point x="133" y="0" type="line"/>
      <point x="133" y="690" type="line"/>
      <point x="12" y="690" type="line"/>
      <point x="12" y="641" type="line"/>
      <point x="75" y="641" type="line"/>
    </contour>
  </outline>
</glyph>
<glyph name="n" format="1">
  <advance width="443"/>
  <unicode hex="006E"/>
  <outline>
    <contour>
      <point x="73" y="0" type="line"/>
      <point x="130" y="0" type="line"/>
      <point x="130" y="353" type="line" smooth="yes"/>
      <point x="130" y="452"/>
      <point x="157" y="491"/>
      <point x="223" y="491" type="curve" smooth="yes"/>
      <point x="289" y="491"/>
      <point x="316" y="452"/>
      <point x="316" y="353" type="curve" smooth="yes"/>
      <point x="316" y="0" type="line"/>
      <point x="426" y="0" type="line"/>
      <point x="426" y="49" type="line"/>
      <point x="374" y="49" type="line"/>
      <point x="374" y="365" type="line" smooth="yes"/>
      <point x="374" y="487"/>
      <point x="332" y="544"/>
      <point x="247" y="544" type="curve" smooth="yes"/>
      <point x="191" y="544"/>
      <point x="156" y="518"/>
      <point x="136" y="461" type="curve"/>
      <point x="118" y="461" type="line"/>
      <point x="118" y="534" type="line"/>
      <point x="20" y="534" type="line"/>
      <point x="20" y="485" type="line"/>
      <point x="73" y="485" type="line"/>
    </contour>
    <contour>
      <point x="225" y="534" type="move" name="top"/>
    </contour>
  </outline>
</glyph>
<glyph name="o" format="1">
  <advance width="424"/>
  <unicode hex="006F"/>
  <outline>
    <contour>
      <point x="212" y="-10" type="curve" smooth="yes"/>
      <point x="328" y="-10"/>
      <point x="382" y="73"/>
      <point x="382" y="267" type="curve" smooth="yes"/>
      <point x="382" y="461"/>
      <point x="328" y="544"/>
      <point x="212" y="544" type="curve" smooth="yes"/>
      <point x="96" y="544"/>
      <point x="42" y="461"/>
      <point x="42" y="267" type="curve" smooth="yes"/>
      <point x="42" y="73"/>
      <point x="96" y="-10"/>
    </contour>
    <contour>
      <point x="212" y="43" type="curve" smooth="yes"/>
      <point x="136" y="43"/>
      <point x="104" y="93"/>
      <point x="104" y="217" type="curve" smooth="yes"/>
      <point x="104" y="317" type="line" smooth="yes"/>
      <point x="104" y="441"/>
      <point x="136" y="491"/>
      <point x="212" y="491" type="curve" smooth="yes"/>
      <point x="288" y="491"/>
      <point x="320" y="441"/>
      <point x="320" y="317" type="curve" smooth="yes"/>
      <point x="320" y="217" type="line" smooth="yes"/>
      <point x="320" y="93"/>
      <point x="288" y="43"/>
    </contour>
    <contour>
      <point x="212" y="534" type="move" name="top"/>
    </contour>
  </outline>
</glyph>
<glyph name="p" format="1">
  <advance width="441"/>
  <unicode hex="0070"/>
  <outline>
    <contour>
      <point x="73" y="-132" type="line"/>
      <point x="131" y="-132" type="line"/>
      <point x="131" y="-55" type="line" smooth="yes"/>
      <point x="131" y="-24"/>
      <point x="128" y="8"/>
      <point x="121" y="71" type="curve"/>
      <point x="138" y="71" type="line"/>
      <point x="159" y="16"/>
      <point x="194" y="-10"/>
      <point x="250" y="-10" type="curve" smooth="yes"/>
      <point x="350" y="-10"/>
      <point x="398" y="73"/>
      <point x="398" y="267" type="curve" smooth="yes"/>
      <point x="398" y="461"/>
      <point x="350" y="544"/>
      <point x="250" y="544" type="curve" smooth="yes"/>
      <point x="194" y="544"/>
      <point x="158" y="517"/>
      <point x="136" y="458" type="curve"/>
      <point x="119" y="458" type="line"/>
      <point x="119" y="534" type="line"/>
      <point x="20" y="534" type="line"/>
      <point x="20" y="485" type="line"/>
      <point x="73" y="485" type="line"/>
    </contour>
    <contour>
      <point x="233" y="43" type="curve" smooth="yes"/>
      <point x="161" y="43"/>
      <point x="131" y="92"/>
      <point x="131" y="213" type="curve" smooth="yes"/>
      <point x="131" y="321" type="line" smooth="yes"/>
      <point x="131" y="442"/>
      <point x="161" y="491"/>
      <point x="233" y="491" type="curve" smooth="yes"/>
      <point x="306" y="491"/>
      <point x="336" y="442"/>
      <point x="336" y="321" type="curve" smooth="yes"/>
      <point x="336" y="213" type="line" smooth="yes"/>
      <point x="336" y="92"/>
      <point x="306" y="43"/>
    </contour>
  </outline>
</glyph>
<glyph name="q" format="1">
  <advance width="433"/>
  <unicode hex="0071"/>
  <outline>
    <contour>
      <point x="310" y="-55" type="curve" smooth="yes"/>
      <point x="310" y="-132" type="line"/>
      <point x="427" y="-132" type="line"/>
      <point x="427" y="-83" type="line"/>
      <point x="368" y="-83" type="line"/>
      <point x="368" y="534" type="line"/>
      <point x="322" y="534" type="line"/>
      <point x="322" y="458" type="line"/>
      <point x="304" y="458" type="line"/>
      <point x="283" y="517"/>
      <point x="247" y="544"/>
      <point x="190" y="544" type="curve" smooth="yes"/>
      <point x="90" y="544"/>
      <point x="43" y="461"/>
      <point x="43" y="267" type="curve" smooth="yes"/>
      <point x="43" y="73"/>
      <point x="90" y="-10"/>
      <point x="190" y="-10" type="curve" smooth="yes"/>
      <point x="246" y="-10"/>
      <point x="282" y="16"/>
      <point x="302" y="71" type="curve"/>
      <point x="320" y="71" type="line"/>
      <point x="313" y="8"/>
      <point x="310" y="-24"/>
    </contour>
    <contour>
      <point x="207" y="43" type="curve" smooth="yes"/>
      <point x="135" y="43"/>
      <point x="105" y="92"/>
      <point x="105" y="213" type="curve" smooth="yes"/>
      <point x="105" y="321" type="line" smooth="yes"/>
      <point x="105" y="442"/>
      <point x="135" y="491"/>
      <point x="207" y="491" type="curve" smooth="yes"/>
      <point x="280" y="491"/>
      <point x="310" y="442"/>
      <point x="310" y="321" type="curve" smooth="yes"/>
      <point x="310" y="213" type="line" smooth="yes"/>
      <point x="310" y="92"/>
      <point x="280" y="43"/>
    </contour>
  </outline>
</glyph>
<glyph name="r" format="1">
  <advance width="323"/>
  <unicode hex="0072"/>
  <outline>
    <contour>
      <point x="73" y="0" type="line"/>
      <point x="130" y="0" type="line"/>
      <point x="130" y="347" type="line" smooth="yes"/>
      <point x="130" y="446"/>
      <point x="157" y="485"/>
      <point x="223" y="485" type="curve" smooth="yes"/>
      <point x="299" y="485" type="line"/>
      <point x="299" y="538" type="line"/>
      <point x="243" y="538" type="line" smooth="yes"/>
      <point x="187" y="538"/>
      <point x="156" y="512"/>
      <point x="136" y="455" type="curve"/>
      <point x="118" y="455" type="line"/>
      <point x="118" y="534" type="line"/>
      <point x="20" y="534" type="line"/>
      <point x="20" y="485" type="line"/>
      <point x="73" y="485" type="line"/>
    </contour>
  </outline>
</glyph>
<glyph name="s" format="1">
  <advance width="389"/>
  <unicode hex="0073"/>
  <outline>
    <contour>
      <point x="195" y="-10" type="curve" smooth="yes"/>
      <point x="293" y="-10"/>
      <point x="351" y="45"/>
      <point x="351" y="138" type="curve" smooth="yes"/>
      <point x="351" y="204"/>
      <point x="320" y="241"/>
      <point x="246" y="276" type="curve" smooth="yes"/>
      <point x="171" y="310" type="line" smooth="yes"/>
      <point x="116" y="335"/>
      <point x="97" y="358"/>
      <point x="97" y="402" type="curve" smooth="yes"/>
      <point x="97" y="459"/>
      <point x="132" y="492"/>
      <point x="194" y="492" type="curve" smooth="yes"/>
      <point x="268" y="492"/>
      <point x="295" y="443"/>
      <point x="295" y="373" type="curve" smooth="yes"/>
      <point x="295" y="373" type="line"/>
      <point x="351" y="373" type="line"/>
      <point x="337" y="495"/>
      <point x="290" y="544"/>
      <point x="194" y="544" type="curve" smooth="yes"/>
      <point x="96" y="544"/>
      <point x="40" y="489"/>
      <point x="40" y="396" type="curve" smooth="yes"/>
      <point x="40" y="330"/>
      <point x="70" y="292"/>
      <point x="143" y="258" type="curve" smooth="yes"/>
      <point x="218" y="224" type="line" smooth="yes"/>
      <point x="275" y="197"/>
      <point x="294" y="175"/>
      <point x="294" y="132" type="curve" smooth="yes"/>
      <point x="294" y="75"/>
      <point x="257" y="42"/>
      <point x="195" y="42" type="curve" smooth="yes"/>
      <point x="120" y="42"/>
      <point x="96" y="91"/>
      <point x="96" y="161" type="curve" smooth="yes"/>
      <point x="96" y="161" type="line"/>
      <point x="38" y="161" type="line"/>
      <point x="51" y="39"/>
      <point x="98" y="-10"/>
    </contour>
    <contour>
      <point x="190" y="534" type="move" name="top"/>
    </contour>
  </outline>
</glyph>
<glyph name="u" format="1">
  <advance width="443"/>
  <unicode hex="0075"/>
  <outline>
    <contour>
      <point x="196" y="-10" type="curve" smooth="yes"/>
      <point x="252" y="-10"/>
      <point x="287" y="16"/>
      <point x="306" y="73" type="curve"/>
      <point x="324" y="73" type="line"/>
      <point x="324" y="45" type="line" smooth="yes"/>
      <point x="324" y="15"/>
      <point x="340" y="0"/>
      <point x="369" y="0" type="curve" smooth="yes"/>
      <point x="423" y="0" type="line"/>
      <point x="423" y="49" type="line"/>
      <point x="370" y="49" type="line"/>
      <point x="370" y="534" type="line"/>
      <point x="312" y="534" type="line"/>
      <point x="312" y="181" type="line" smooth="yes"/>
      <point x="312" y="82"/>
      <point x="285" y="43"/>
      <point x="220" y="43" type="curve" smooth="yes"/>
      <point x="154" y="43"/>
      <point x="127" y="82"/>
      <point x="127" y="181" type="curve" smooth="yes"/>
      <point x="127" y="534" type="line"/>
      <point x="16" y="534" type="line"/>
      <point x="16" y="485" type="line"/>
      <point x="69" y="485" type="line"/>
      <point x="69" y="169" type="line" smooth="yes"/>
      <point x="69" y="47"/>
      <point x="110" y="-10"/>
    </contour>
    <contour>
      <point x="220" y="534" type="move" name="top"/>
    </contour>
  </outline>
</glyph>
<glyph name="w" format="1">
  <advance width="632"/>
  <unicode hex="0077"/>
  <outline>
    <contour>
      <point x="130" y="0" type="line"/>
      <point x="235" y="0" type="line"/>
      <point x="307" y="344" type="line"/>
      <point x="324" y="344" type="line"/>
      <point x="396" y="0" type="line"/>
      <point x="501" y="0" type="line"/>
      <point x="605" y="534" type="line"/>
      <point x="548" y="534" type="line"/>
      <point x="456" y="53" type="line"/>
      <point x="438" y="53" type="line"/>
      <point x="343" y="534" type="line"/>
      <point x="290" y="534" type="line"/>
      <point x="195" y="53" type="line"/>
      <point x="177" y="53" type="line"/>
      <point x="85" y="534" type="line"/>
      <point x="26" y="534" type="line"/>
    </contour>
  </outline>
</glyph>
<glyph name="braceright" format="1">
  <advance width="263"/>
  <unicode hex="007D"/>
  <outline>
    <contour>
      <point x="122" y="782" type="curve" smooth="yes"/>
      <point x="28" y="782" type="line"/>
      <point x="28" y="733" type="line"/>
      <point x="105" y="733" type="line" smooth="yes"/>
      <point x="118" y="733"/>
      <point x="126" y="726"/>
      <point x="126" y="712" type="curve" smooth="yes"/>
      <point x="126" y="685"/>
      <point x="100" y="457"/>
      <point x="100" y="411" type="curve" smooth="yes"/>
      <point x="100" y="375"/>
      <point x="114" y="357"/>
      <point x="145" y="353" type="curve"/>
      <point x="145" y="337" type="line"/>
      <point x="114" y="333"/>
      <point x="100" y="315"/>
      <point x="100" y="279" type="curve" smooth="yes"/>
      <point x="100" y="233"/>
      <point x="126" y="5"/>
      <point x="126" y="-22" type="curve" smooth="yes"/>
      <point x="126" y="-36"/>
      <point x="118" y="-43"/>
      <point x="105" y="-43" type="curve" smooth="yes"/>
      <point x="28" y="-43" type="line"/>
      <point x="28" y="-92" type="line"/>
      <point x="122" y="-92" type="line" smooth="yes"/>
      <point x="161" y="-92"/>
      <point x="181" y="-72"/>
      <point x="181" y="-32" type="curve" smooth="yes"/>
      <point x="181" y="13"/>
      <point x="154" y="235"/>
      <point x="154" y="281" type="curve" smooth="yes"/>
      <point x="154" y="309"/>
      <point x="164" y="321"/>
      <point x="186" y="321" type="curve" smooth="yes"/>
      <point x="241" y="321" type="line"/>
      <point x="241" y="369" type="line"/>
      <point x="186" y="369" type="line" smooth="yes"/>
      <point x="164" y="369"/>
      <point x="154" y="381"/>
      <point x="154" y="409" type="curve" smooth="yes"/>
      <point x="154" y="455"/>
      <point x="181" y="677"/>
      <point x="181" y="722" type="curve" smooth="yes"/>
      <point x="181" y="762"/>
      <point x="161" y="782"/>
    </contour>
  </outline>
</glyph>
<glyph name="asciitilde" format="1">
  <advance width="384"/>
  <unicode hex="007E"/>
  <outline>
    <contour>
      <point x="33" y="291" type="curve"/>
      <point x="81" y="291" type="line"/>
      <point x="81" y="323"/>
      <point x="93" y="340"/>
      <point x="118" y="340" type="curve" smooth="yes"/>
      <point x="161" y="340"/>
      <point x="205" y="287"/>
      <point x="270" y="287" type="curve" smooth="yes"/>
      <point x="322" y="287"/>
      <point x="350" y="320"/>
      <point x="350" y="383" type="curve"/>
      <point x="303" y="383" type="line"/>
      <point x="303" y="351"/>
      <point x="290" y="334"/>
      <point x="266" y="334" type="curve" smooth="yes"/>
      <point x="223" y="334"/>
      <point x="178" y="387"/>
      <point x="113" y="387" type="curve" smooth="yes"/>
      <point x="61" y="387"/>
      <point x="33" y="354"/>
    </contour>
  </outline>
</glyph>
<glyph name="cent" format="1">
  <advance width="421"/>
  <unicode hex="00A2"/>
  <outline>
    <contour>
      <point x="214" y="-5" type="curve" smooth="yes"/>
      <point x="310" y="-5"/>
      <point x="360" y="50"/>
      <point x="371" y="183" type="curve"/>
      <point x="314" y="183" type="line"/>
      <point x="314" y="183" type="line"/>
      <point x="314" y="97"/>
      <point x="286" y="47"/>
      <point x="214" y="47" type="curve" smooth="yes"/>
      <point x="142" y="47"/>
      <point x="111" y="94"/>
      <point x="111" y="213" type="curve" smooth="yes"/>
      <point x="111" y="321" type="line" smooth="yes"/>
      <point x="111" y="440"/>
      <point x="142" y="487"/>
      <point x="214" y="487" type="curve" smooth="yes"/>
      <point x="286" y="487"/>
      <point x="314" y="437"/>
      <point x="314" y="359" type="curve" smooth="yes"/>
      <point x="314" y="359" type="line"/>
      <point x="371" y="359" type="line"/>
      <point x="358" y="486"/>
      <point x="308" y="539"/>
      <point x="214" y="539" type="curve" smooth="yes"/>
      <point x="101" y="539"/>
      <point x="49" y="460"/>
      <point x="49" y="267" type="curve" smooth="yes"/>
      <point x="49" y="74"/>
      <point x="101" y="-5"/>
    </contour>
    <contour>
      <point x="187" y="-92" type="line"/>
      <point x="240" y="-92" type="line"/>
      <point x="240" y="24" type="line"/>
      <point x="187" y="24" type="line"/>
    </contour>
    <contour>
      <point x="187" y="510" type="line"/>
      <point x="240" y="510" type="line"/>
      <point x="240" y="626" type="line"/>
      <point x="187" y="626" type="line"/>
    </contour>
  </outline>
</glyph>
<glyph name="currency" format="1">
  <advance width="461"/>
  <unicode hex="00A4"/>
  <outline>
    <contour>
      <point x="231" y="128" type="curve" smooth="yes"/>
      <point x="347" y="128"/>
      <point x="389" y="211"/>
      <point x="389" y="345" type="curve" smooth="yes"/>
      <point x="389" y="479"/>
      <point x="347" y="562"/>
      <point x="231" y="562" type="curve" smooth="yes"/>
      <point x="116" y="562"/>
      <point x="72" y="479"/>
      <point x="72" y="345" type="curve" smooth="yes"/>
      <point x="72" y="211"/>
      <point x="116" y="128"/>
    </contour>
    <contour>
      <point x="86" y="87" type="line"/>
      <point x="157" y="162" type="line"/>
      <point x="117" y="202" type="line"/>
      <point x="45" y="126" type="line"/>
    </contour>
    <contour>
      <point x="376" y="87" type="line"/>
      <point x="417" y="126" type="line"/>
      <point x="345" y="202" type="line"/>
      <point x="305" y="162" type="line"/>
    </contour>
    <contour>
      <point x="231" y="181" type="curve" smooth="yes"/>
      <point x="156" y="181"/>
      <point x="133" y="231"/>
      <point x="133" y="310" type="curve" smooth="yes"/>
      <point x="133" y="380" type="line" smooth="yes"/>
      <point x="133" y="459"/>
      <point x="156" y="510"/>
      <point x="231" y="510" type="curve" smooth="yes"/>
      <point x="307" y="510"/>
      <point x="327" y="459"/>
      <point x="327" y="380" type="curve" smooth="yes"/>
      <point x="327" y="310" type="line" smooth="yes"/>
      <point x="327" y="231"/>
      <point x="307" y="181"/>
    </contour>
    <contour>
      <point x="117" y="486" type="line"/>
      <point x="157" y="526" type="line"/>
      <point x="86" y="601" type="line"/>
      <point x="45" y="563" type="line"/>
    </contour>
    <contour>
      <point x="345" y="486" type="line"/>
      <point x="417" y="563" type="line"/>
      <point x="376" y="601" type="line"/>
      <point x="305" y="526" type="line"/>
    </contour>
  </outline>
</glyph>
<glyph name="yen" format="1">
  <advance width="427"/>
  <unicode hex="00A5"/>
  <outline>
    <contour>
      <point x="183" y="0" type="line"/>
      <point x="243" y="0" type="line"/>
      <point x="243" y="283" type="line"/>
      <point x="404" y="690" type="line"/>
      <point x="344" y="690" type="line"/>
      <point x="223" y="379" type="line"/>
      <point x="205" y="379" type="line"/>
      <point x="85" y="690" type="line"/>
      <point x="22" y="690" type="line"/>
      <point x="183" y="283" type="line"/>
    </contour>
    <contour>
      <point x="69" y="179" type="line"/>
      <point x="358" y="179" type="line"/>
      <point x="358" y="226" type="line"/>
      <point x="69" y="226" type="line"/>
    </contour>
    <contour>
      <point x="69" y="283" type="line"/>
      <point x="358" y="283" type="line"/>
      <point x="358" y="330" type="line"/>
      <point x="69" y="330" type="line"/>
    </contour>
  </outline>
</glyph>
<glyph name="ordfeminine" format="1">
  <advance width="331"/>
  <unicode hex="00AA"/>
  <note>
ordfeminine
</note>
  <outline>
    <contour>
      <point x="128" y="353" type="curve" smooth="yes"/>
      <point x="167" y="353"/>
      <point x="193" y="368"/>
      <point x="205" y="406" type="curve"/>
      <point x="219" y="406" type="line"/>
      <point x="219" y="391" type="line" smooth="yes"/>
      <point x="219" y="370"/>
      <point x="230" y="359"/>
      <point x="252" y="359" type="curve" smooth="yes"/>
      <point x="292" y="359" type="line"/>
      <point x="292" y="396" type="line"/>
      <point x="257" y="396" type="line"/>
      <point x="257" y="587" type="line" smooth="yes"/>
      <point x="257" y="659"/>
      <point x="221" y="696"/>
      <point x="153" y="696" type="curve" smooth="yes"/>
      <point x="89" y="696"/>
      <point x="57" y="665"/>
      <point x="48" y="588" type="curve"/>
      <point x="94" y="588" type="line"/>
      <point x="94" y="590" type="line" smooth="yes"/>
      <point x="94" y="634"/>
      <point x="114" y="656"/>
      <point x="152" y="656" type="curve" smooth="yes"/>
      <point x="191" y="656"/>
      <point x="210" y="634"/>
      <point x="210" y="584" type="curve" smooth="yes"/>
      <point x="210" y="536" type="line"/>
      <point x="210" y="527" type="line"/>
      <point x="210" y="468" type="line" smooth="yes"/>
      <point x="210" y="416"/>
      <point x="190" y="392"/>
      <point x="148" y="392" type="curve" smooth="yes"/>
      <point x="110" y="392"/>
      <point x="91" y="413"/>
      <point x="91" y="450" type="curve" smooth="yes"/>
      <point x="91" y="451" type="line" smooth="yes"/>
      <point x="91" y="487"/>
      <point x="108" y="504"/>
      <point x="150" y="510" type="curve" smooth="yes"/>
      <point x="210" y="518" type="line"/>
      <point x="210" y="552" type="line"/>
      <point x="139" y="542" type="line" smooth="yes"/>
      <point x="70" y="533"/>
      <point x="43" y="502"/>
      <point x="43" y="444" type="curve" smooth="yes"/>
      <point x="43" y="385"/>
      <point x="74" y="353"/>
    </contour>
    <contour>
      <point x="155" y="690" type="move" name="top"/>
    </contour>
  </outline>
</glyph>
<glyph name="logicalnot" format="1">
  <advance width="384"/>
  <unicode hex="00AC"/>
  <outline>
    <contour>
      <point x="298" y="195" type="line"/>
      <point x="349" y="195" type="line"/>
      <point x="349" y="361" type="line"/>
      <point x="32" y="361" type="line"/>
      <point x="32" y="313" type="line"/>
      <point x="337" y="313" type="line"/>
      <point x="298" y="341" type="line"/>
    </contour>
  </outline>
</glyph>
<glyph name="plusminus" format="1">
  <advance width="384"/>
  <unicode hex="00B1"/>
  <outline>
    <contour>
      <point x="33" y="324" type="line"/>
      <point x="350" y="324" type="line"/>
      <point x="350" y="373" type="line"/>
      <point x="33" y="373" type="line"/>
    </contour>
    <contour>
      <point x="166" y="184" type="line"/>
      <point x="217" y="184" type="line"/>
      <point x="217" y="513" type="line"/>
      <point x="166" y="513" type="line"/>
    </contour>
    <contour>
      <point x="33" y="62" type="line"/>
      <point x="350" y="62" type="line"/>
      <point x="350" y="111" type="line"/>
      <point x="33" y="111" type="line"/>
    </contour>
  </outline>
</glyph>
<glyph name="twosuperior" format="1">
  <advance width="273"/>
  <unicode hex="00B2"/>
  <note>
twosuperior
</note>
  <outline>
    <contour>
      <point x="32" y="440" type="curve" smooth="yes"/>
      <point x="32" y="368" type="line"/>
      <point x="240" y="368" type="line"/>
      <point x="240" y="470" type="line"/>
      <point x="195" y="470" type="line"/>
      <point x="195" y="407" type="line"/>
      <point x="56" y="407" type="line"/>
      <point x="83" y="387" type="line"/>
      <point x="83" y="440" type="line" smooth="yes"/>
      <point x="83" y="468"/>
      <point x="95" y="482"/>
      <point x="128" y="494" type="curve" smooth="yes"/>
      <point x="175" y="512" type="line" smooth="yes"/>
      <point x="225" y="532"/>
      <point x="245" y="556"/>
      <point x="245" y="604" type="curve" smooth="yes"/>
      <point x="245" y="606" type="line" smooth="yes"/>
      <point x="245" y="662"/>
      <point x="207" y="694"/>
      <point x="138" y="694" type="curve" smooth="yes"/>
      <point x="71" y="694"/>
      <point x="37" y="663"/>
      <point x="31" y="586" type="curve"/>
      <point x="83" y="586" type="line"/>
      <point x="83" y="597" type="line" smooth="yes"/>
      <point x="83" y="634"/>
      <point x="101" y="652"/>
      <point x="138" y="652" type="curve" smooth="yes"/>
      <point x="174" y="652"/>
      <point x="193" y="636"/>
      <point x="193" y="601" type="curve" smooth="yes"/>
      <point x="193" y="599" type="line" smooth="yes"/>
      <point x="193" y="574"/>
      <point x="181" y="561"/>
      <point x="150" y="549" type="curve" smooth="yes"/>
      <point x="103" y="531" type="line" smooth="yes"/>
      <point x="53" y="511"/>
      <point x="32" y="488"/>
    </contour>
  </outline>
</glyph>
<glyph name="ordmasculine" format="1">
  <advance width="322"/>
  <unicode hex="00BA"/>
  <note>
ordmasculine
</note>
  <outline>
    <contour>
      <point x="161" y="353" type="curve" smooth="yes"/>
      <point x="242" y="353"/>
      <point x="279" y="404"/>
      <point x="279" y="525" type="curve" smooth="yes"/>
      <point x="279" y="645"/>
      <point x="242" y="696"/>
      <point x="161" y="696" type="curve" smooth="yes"/>
      <point x="81" y="696"/>
      <point x="43" y="645"/>
      <point x="43" y="525" type="curve" smooth="yes"/>
      <point x="43" y="404"/>
      <point x="81" y="353"/>
    </contour>
    <contour>
      <point x="161" y="393" type="curve" smooth="yes"/>
      <point x="114" y="393"/>
      <point x="93" y="420"/>
      <point x="93" y="487" type="curve" smooth="yes"/>
      <point x="93" y="563" type="line" smooth="yes"/>
      <point x="93" y="629"/>
      <point x="114" y="656"/>
      <point x="161" y="656" type="curve" smooth="yes"/>
      <point x="209" y="656"/>
      <point x="229" y="629"/>
      <point x="229" y="563" type="curve" smooth="yes"/>
      <point x="229" y="487" type="line" smooth="yes"/>
      <point x="229" y="420"/>
      <point x="209" y="393"/>
    </contour>
    <contour>
      <point x="161" y="690" type="move" name="top"/>
    </contour>
  </outline>
</glyph>
<glyph name="questiondown" format="1">
  <advance width="394"/>
  <unicode hex="00BF"/>
  <outline>
    <contour>
      <point x="229" y="279" type="curve" smooth="yes"/>
      <point x="226" y="372" type="line"/>
      <point x="191" y="372" type="line"/>
      <point x="188" y="297" type="line" smooth="yes"/>
      <point x="186" y="256"/>
      <point x="171" y="230"/>
      <point x="138" y="210" type="curve" smooth="yes"/>
      <point x="63" y="167"/>
      <point x="35" y="121"/>
      <point x="35" y="37" type="curve" smooth="yes"/>
      <point x="35" y="9" type="line" smooth="yes"/>
      <point x="35" y="-107"/>
      <point x="90" y="-166"/>
      <point x="199" y="-166" type="curve" smooth="yes"/>
      <point x="308" y="-166"/>
      <point x="355" y="-104"/>
      <point x="365" y="70" type="curve"/>
      <point x="305" y="70" type="line"/>
      <point x="305" y="50" type="line" smooth="yes"/>
      <point x="305" y="-64"/>
      <point x="272" y="-111"/>
      <point x="199" y="-111" type="curve" smooth="yes"/>
      <point x="131" y="-111"/>
      <point x="93" y="-73"/>
      <point x="93" y="5" type="curve" smooth="yes"/>
      <point x="93" y="42" type="line" smooth="yes"/>
      <point x="93" y="97"/>
      <point x="112" y="123"/>
      <point x="167" y="160" type="curve" smooth="yes"/>
      <point x="216" y="198"/>
      <point x="231" y="225"/>
    </contour>
    <contour>
      <point x="247" y="534" type="line"/>
      <point x="170" y="534" type="line"/>
      <point x="170" y="458" type="line"/>
      <point x="247" y="458" type="line"/>
    </contour>
  </outline>
</glyph>
<glyph name="Eth" format="1">
  <advance width="482"/>
  <unicode hex="00D0"/>
  <note>
Eth
</note>
  <outline>
    <contour>
      <point x="19" y="328" type="line"/>
      <point x="252" y="328" type="line"/>
      <point x="252" y="376" type="line"/>
      <point x="19" y="376" type="line"/>
    </contour>
    <contour>
      <point x="78" y="0" type="line"/>
      <point x="245" y="0" type="line" smooth="yes"/>
      <point x="381" y="0"/>
      <point x="429" y="76"/>
      <point x="429" y="345" type="curve" smooth="yes"/>
      <point x="429" y="614"/>
      <point x="381" y="690"/>
      <point x="245" y="690" type="curve" smooth="yes"/>
      <point x="19" y="690" type="line"/>
      <point x="19" y="639" type="line"/>
      <point x="78" y="639" type="line"/>
    </contour>
    <contour>
      <point x="240" y="51" type="curve" smooth="yes"/>
      <point x="138" y="51" type="line"/>
      <point x="138" y="639" type="line"/>
      <point x="240" y="639" type="line" smooth="yes"/>
      <point x="328" y="639"/>
      <point x="366" y="592"/>
      <point x="366" y="454" type="curve" smooth="yes"/>
      <point x="366" y="236" type="line" smooth="yes"/>
      <point x="366" y="98"/>
      <point x="328" y="51"/>
    </contour>
  </outline>
</glyph>
<glyph name="eth" format="1">
  <advance width="422"/>
  <unicode hex="00F0"/>
  <note>
eth
</note>
  <outline>
    <contour>
      <point x="212" y="-10" type="curve" smooth="yes"/>
      <point x="327" y="-10"/>
      <point x="380" y="72"/>
      <point x="380" y="264" type="curve" smooth="yes"/>
      <point x="380" y="459"/>
      <point x="321" y="577"/>
      <point x="221" y="690" type="curve"/>
      <point x="162" y="690" type="line"/>
      <point x="240" y="610"/>
      <point x="305" y="509"/>
      <point x="315" y="438" type="curve"/>
      <point x="298" y="438" type="line"/>
      <point x="286" y="477"/>
      <point x="247" y="504"/>
      <point x="191" y="504" type="curve" smooth="yes"/>
      <point x="92" y="504"/>
      <point x="42" y="420"/>
      <point x="42" y="247" type="curve" smooth="yes"/>
      <point x="42" y="74"/>
      <point x="96" y="-10"/>
    </contour>
    <contour>
      <point x="212" y="43" type="curve" smooth="yes"/>
      <point x="136" y="43"/>
      <point x="104" y="92"/>
      <point x="104" y="212" type="curve" smooth="yes"/>
      <point x="104" y="282" type="line" smooth="yes"/>
      <point x="104" y="402"/>
      <point x="136" y="451"/>
      <point x="211" y="451" type="curve" smooth="yes"/>
      <point x="287" y="451"/>
      <point x="318" y="402"/>
      <point x="318" y="282" type="curve" smooth="yes"/>
      <point x="318" y="212" type="line" smooth="yes"/>
      <point x="318" y="92"/>
      <point x="287" y="43"/>
    </contour>
    <contour>
      <point x="156" y="543" type="line"/>
      <point x="355" y="604" type="line"/>
      <point x="355" y="648" type="line"/>
      <point x="156" y="586" type="line"/>
    </contour>
  </outline>
</glyph>
<glyph name="odieresis" format="1">
  <advance width="424"/>
  <unicode hex="00F6"/>
  <outline>
    <component base="o"/>
    <component base="dieresiscomb" xOffset="12"/>
    <contour>
      <point x="212" y="534" type="move" name="top"/>
    </contour>
  </outline>
</glyph>
<glyph name="divide" format="1">
  <advance width="384"/>
  <unicode hex="00F7"/>
  <outline>
    <contour>
      <point x="159" y="431" type="line"/>
      <point x="224" y="431" type="line"/>
      <point x="224" y="496" type="line"/>
      <point x="159" y="496" type="line"/>
    </contour>
    <contour>
      <point x="159" y="178" type="line"/>
      <point x="224" y="178" type="line"/>
      <point x="224" y="243" type="line"/>
      <point x="159" y="243" type="line"/>
    </contour>
    <contour>
      <point x="33" y="313" type="line"/>
      <point x="350" y="313" type="line"/>
      <point x="350" y="361" type="line"/>
      <point x="33" y="361" type="line"/>
    </contour>
  </outline>
</glyph>
<glyph name="oslash" format="1">
  <advance width="428"/>
  <unicode hex="00F8"/>
  <note>
oslash
</note>
  <outline>
    <contour>
      <point x="214" y="-10" type="curve" smooth="yes"/>
      <point x="330" y="-10"/>
      <point x="384" y="73"/>
      <point x="384" y="267" type="curve" smooth="yes"/>
      <point x="384" y="461"/>
      <point x="330" y="544"/>
      <point x="214" y="544" type="curve" smooth="yes"/>
      <point x="98" y="544"/>
      <point x="44" y="461"/>
      <point x="44" y="267" type="curve" smooth="yes"/>
      <point x="44" y="73"/>
      <point x="98" y="-10"/>
    </contour>
    <contour>
      <point x="214" y="43" type="curve" smooth="yes"/>
      <point x="138" y="43"/>
      <point x="106" y="90"/>
      <point x="106" y="217" type="curve" smooth="yes"/>
      <point x="106" y="317" type="line" smooth="yes"/>
      <point x="106" y="441"/>
      <point x="138" y="491"/>
      <point x="214" y="491" type="curve" smooth="yes"/>
      <point x="290" y="491"/>
      <point x="322" y="444"/>
      <point x="322" y="317" type="curve" smooth="yes"/>
      <point x="322" y="217" type="line" smooth="yes"/>
      <point x="322" y="93"/>
      <point x="290" y="43"/>
    </contour>
    <contour>
      <point x="39" y="-10" type="line"/>
      <point x="90" y="-10" type="line"/>
      <point x="123" y="49" type="line"/>
      <point x="125" y="49" type="line"/>
      <point x="331" y="440" type="line"/>
      <point x="333" y="440" type="line"/>
      <point x="389" y="544" type="line"/>
      <point x="339" y="544" type="line"/>
      <point x="305" y="485" type="line"/>
      <point x="303" y="485" type="line"/>
      <point x="97" y="94" type="line"/>
      <point x="95" y="94" type="line"/>
    </contour>
    <contour>
      <point x="214" y="534" type="move" name="top"/>
    </contour>
  </outline>
</glyph>
<glyph name="thorn" format="1">
  <advance width="432"/>
  <unicode hex="00FE"/>
  <note>
thorn
</note>
  <outline>
    <contour>
      <point x="65" y="-132" type="line"/>
      <point x="123" y="-132" type="line"/>
      <point x="123" y="-55" type="line" smooth="yes"/>
      <point x="123" y="-24"/>
      <point x="120" y="8"/>
      <point x="113" y="71" type="curve"/>
      <point x="131" y="71" type="line"/>
      <point x="151" y="16"/>
      <point x="187" y="-10"/>
      <point x="243" y="-10" type="curve" smooth="yes"/>
      <point x="343" y="-10"/>
      <point x="390" y="73"/>
      <point x="390" y="267" type="curve" smooth="yes"/>
      <point x="390" y="461"/>
      <point x="343" y="544"/>
      <point x="243" y="544" type="curve" smooth="yes"/>
      <point x="187" y="544"/>
      <point x="151" y="518"/>
      <point x="131" y="463" type="curve"/>
      <point x="113" y="463" type="line"/>
      <point x="120" y="526"/>
      <point x="123" y="558"/>
      <point x="123" y="589" type="curve" smooth="yes"/>
      <point x="123" y="690" type="line"/>
      <point x="13" y="690" type="line"/>
      <point x="13" y="641" type="line"/>
      <point x="65" y="641" type="line"/>
    </contour>
    <contour>
      <point x="226" y="43" type="curve" smooth="yes"/>
      <point x="153" y="43"/>
      <point x="123" y="92"/>
      <point x="123" y="213" type="curve" smooth="yes"/>
      <point x="123" y="321" type="line" smooth="yes"/>
      <point x="123" y="442"/>
      <point x="153" y="491"/>
      <point x="226" y="491" type="curve" smooth="yes"/>
      <point x="298" y="491"/>
      <point x="328" y="442"/>
      <point x="328" y="321" type="curve" smooth="yes"/>
      <point x="328" y="213" type="line" smooth="yes"/>
      <point x="328" y="92"/>
      <point x="298" y="43"/>
    </contour>
  </outline>
</glyph>
<glyph name="cacute" format="1">
  <advance width="408"/>
  <unicode hex="0107"/>
  <outline>
    <component base="c"/>
    <component base="acutecomb" xOffset="8"/>
    <contour>
      <point x="208" y="0" type="move" name="bottom"/>
    </contour>
    <contour>
      <point x="208" y="534" type="move" name="top"/>
    </contour>
  </outline>
</glyph>
<glyph name="lslash" format="1">
  <advance width="241"/>
  <unicode hex="0142"/>
  <note>
lslash
</note>
  <outline>
    <contour>
      <point x="23" y="291" type="line"/>
      <point x="215" y="394" type="line"/>
      <point x="215" y="443" type="line"/>
      <point x="23" y="340" type="line"/>
    </contour>
    <contour>
      <point x="90" y="0" type="line"/>
      <point x="148" y="0" type="line"/>
      <point x="148" y="690" type="line"/>
      <point x="27" y="690" type="line"/>
      <point x="27" y="641" type="line"/>
      <point x="90" y="641" type="line"/>
    </contour>
  </outline>
</glyph>
<glyph name="oe" format="1">
  <advance width="682"/>
  <unicode hex="0153"/>
  <note>
oe
</note>
  <outline>
    <contour>
      <point x="211" y="-10" type="curve" smooth="yes"/>
      <point x="278" y="-10"/>
      <point x="321" y="19"/>
      <point x="338" y="68" type="curve"/>
      <point x="356" y="68" type="line"/>
      <point x="373" y="19"/>
      <point x="415" y="-10"/>
      <point x="482" y="-10" type="curve" smooth="yes"/>
      <point x="573" y="-10"/>
      <point x="622" y="42"/>
      <point x="636" y="161" type="curve"/>
      <point x="579" y="161" type="line"/>
      <point x="579" y="161" type="line"/>
      <point x="579" y="95"/>
      <point x="557" y="43"/>
      <point x="482" y="43" type="curve" smooth="yes"/>
      <point x="408" y="43"/>
      <point x="378" y="93"/>
      <point x="378" y="217" type="curve" smooth="yes"/>
      <point x="378" y="318" type="line" smooth="yes"/>
      <point x="378" y="442"/>
      <point x="408" y="492"/>
      <point x="482" y="492" type="curve" smooth="yes"/>
      <point x="557" y="492"/>
      <point x="587" y="442"/>
      <point x="587" y="318" type="curve" smooth="yes"/>
      <point x="587" y="278" type="line"/>
      <point x="616" y="306" type="line"/>
      <point x="362" y="306" type="line"/>
      <point x="362" y="262" type="line"/>
      <point x="641" y="262" type="line"/>
      <point x="641" y="287" type="line" smooth="yes"/>
      <point x="641" y="467"/>
      <point x="590" y="544"/>
      <point x="482" y="544" type="curve" smooth="yes"/>
      <point x="416" y="544"/>
      <point x="373" y="515"/>
      <point x="356" y="466" type="curve"/>
      <point x="338" y="466" type="line"/>
      <point x="321" y="515"/>
      <point x="278" y="544"/>
      <point x="211" y="544" type="curve" smooth="yes"/>
      <point x="96" y="544"/>
      <point x="43" y="461"/>
      <point x="43" y="267" type="curve" smooth="yes"/>
      <point x="43" y="73"/>
      <point x="96" y="-10"/>
    </contour>
    <contour>
      <point x="211" y="43" type="curve" smooth="yes"/>
      <point x="136" y="43"/>
      <point x="105" y="93"/>
      <point x="105" y="217" type="curve" smooth="yes"/>
      <point x="105" y="317" type="line" smooth="yes"/>
      <point x="105" y="441"/>
      <point x="136" y="491"/>
      <point x="211" y="491" type="curve" smooth="yes"/>
      <point x="286" y="491"/>
      <point x="316" y="441"/>
      <point x="316" y="317" type="curve" smooth="yes"/>
      <point x="316" y="217" type="line" smooth="yes"/>
      <point x="316" y="93"/>
      <point x="286" y="43"/>
    </contour>
  </outline>
</glyph>
<glyph name="florin" format="1">
  <advance width="351"/>
  <unicode hex="0192"/>
  <outline>
    <contour>
      <point x="34" y="0" type="line"/>
      <point x="148" y="0" type="line" smooth="yes"/>
      <point x="177" y="0"/>
      <point x="193" y="15"/>
      <point x="193" y="45" type="curve" smooth="yes"/>
      <point x="193" y="639" type="line"/>
      <point x="319" y="639" type="line"/>
      <point x="319" y="690" type="line"/>
      <point x="180" y="690" type="line" smooth="yes"/>
      <point x="150" y="690"/>
      <point x="135" y="675"/>
      <point x="135" y="645" type="curve" smooth="yes"/>
      <point x="135" y="51" type="line"/>
      <point x="34" y="51" type="line"/>
    </contour>
    <contour>
      <point x="34" y="402" type="line"/>
      <point x="319" y="402" type="line"/>
      <point x="319" y="449" type="line"/>
      <point x="34" y="449" type="line"/>
    </contour>
  </outline>
</glyph>
<glyph name="tildecomb" format="1">
  <advance width="0"/>
  <unicode hex="0303"/>
  <note>
tilde
</note>
  <outline>
    <contour>
      <point x="249" y="578" type="curve" smooth="yes"/>
      <point x="288" y="578"/>
      <point x="309" y="602"/>
      <point x="309" y="645" type="curve" smooth="yes"/>
      <point x="309" y="686" type="line"/>
      <point x="271" y="686" type="line"/>
      <point x="271" y="647" type="line" smooth="yes"/>
      <point x="271" y="627"/>
      <point x="263" y="618"/>
      <point x="248" y="618" type="curve" smooth="yes"/>
      <point x="209" y="618"/>
      <point x="215" y="690"/>
      <point x="151" y="690" type="curve" smooth="yes"/>
      <point x="112" y="690"/>
      <point x="91" y="665"/>
      <point x="91" y="622" type="curve" smooth="yes"/>
      <point x="91" y="582" type="line"/>
      <point x="129" y="582" type="line"/>
      <point x="129" y="620" type="line" smooth="yes"/>
      <point x="129" y="640"/>
      <point x="137" y="650"/>
      <point x="152" y="650" type="curve" smooth="yes"/>
      <point x="191" y="650"/>
      <point x="185" y="578"/>
    </contour>
    <contour>
      <point x="200" y="534" type="move" name="_top"/>
    </contour>
  </outline>
</glyph>
<glyph name="ringcomb" format="1">
  <advance width="0"/>
  <unicode hex="030A"/>
  <note>
ring
</note>
  <outline>
    <contour>
      <point x="200" y="570" type="curve" smooth="yes"/>
      <point x="247" y="570"/>
      <point x="278" y="599"/>
      <point x="278" y="646" type="curve" smooth="yes"/>
      <point x="278" y="693"/>
      <point x="247" y="722"/>
      <point x="200" y="722" type="curve" smooth="yes"/>
      <point x="153" y="722"/>
      <point x="122" y="693"/>
      <point x="122" y="646" type="curve" smooth="yes"/>
      <point x="122" y="599"/>
      <point x="153" y="570"/>
    </contour>
    <contour>
      <point x="200" y="604" type="curve" smooth="yes"/>
      <point x="176" y="604"/>
      <point x="164" y="617"/>
      <point x="164" y="645" type="curve" smooth="yes"/>
      <point x="164" y="647" type="line" smooth="yes"/>
      <point x="164" y="675"/>
      <point x="176" y="688"/>
      <point x="200" y="688" type="curve" smooth="yes"/>
      <point x="224" y="688"/>
      <point x="236" y="675"/>
      <point x="236" y="647" type="curve" smooth="yes"/>
      <point x="236" y="645" type="line" smooth="yes"/>
      <point x="236" y="617"/>
      <point x="224" y="604"/>
    </contour>
    <contour>
      <point x="200" y="534" type="move" name="_top"/>
    </contour>
  </outline>
</glyph>
<glyph name="caroncomb" format="1">
  <advance width="0"/>
  <unicode hex="030C"/>
  <outline>
    <contour>
      <point x="315" y="694" type="line"/>
      <point x="268" y="694" type="line"/>
      <point x="209" y="622" type="line"/>
      <point x="191" y="622" type="line"/>
      <point x="132" y="694" type="line"/>
      <point x="85" y="694" type="line"/>
      <point x="160" y="578" type="line"/>
      <point x="240" y="578" type="line"/>
    </contour>
    <contour>
      <point x="200" y="534" type="move" name="_top"/>
    </contour>
  </outline>
</glyph>
<glyph name="ogonekcomb" format="1">
  <advance width="0"/>
  <unicode hex="0328"/>
  <outline>
    <contour>
      <point x="155" y="-136" type="curve" smooth="yes"/>
      <point x="205" y="-136" type="line"/>
      <point x="205" y="-95" type="line"/>
      <point x="161" y="-95" type="line" smooth="yes"/>
      <point x="139" y="-95"/>
      <point x="128" y="-85"/>
      <point x="128" y="-68" type="curve" smooth="yes"/>
      <point x="128" y="-48"/>
      <point x="144" y="-28"/>
      <point x="200" y="0" type="curve"/>
      <point x="140" y="17" type="line"/>
      <point x="140" y="-15" type="line"/>
      <point x="101" y="-28"/>
      <point x="83" y="-49"/>
      <point x="83" y="-80" type="curve" smooth="yes"/>
      <point x="83" y="-116"/>
      <point x="108" y="-136"/>
    </contour>
    <contour>
      <point x="200" y="0" type="move" name="_ogonek"/>
    </contour>
  </outline>
</glyph>
<glyph name="literSign" format="1">
  <advance width="435"/>
  <unicode hex="2113"/>
  <outline>
    <contour>
      <point x="246" y="-10" type="curve" smooth="yes"/>
      <point x="336" y="-10"/>
      <point x="380" y="41"/>
      <point x="392" y="161" type="curve"/>
      <point x="336" y="161" type="line"/>
      <point x="336" y="161" type="line" smooth="yes"/>
      <point x="336" y="95"/>
      <point x="311" y="43"/>
      <point x="246" y="43" type="curve" smooth="yes"/>
      <point x="179" y="43"/>
      <point x="154" y="90"/>
      <point x="154" y="216" type="curve" smooth="yes"/>
      <point x="154" y="474" type="line" smooth="yes"/>
      <point x="154" y="600"/>
      <point x="180" y="647"/>
      <point x="249" y="647" type="curve" smooth="yes"/>
      <point x="312" y="647"/>
      <point x="339" y="605"/>
      <point x="339" y="504" type="curve" smooth="yes"/>
      <point x="339" y="481" type="line" smooth="yes"/>
      <point x="339" y="410"/>
      <point x="319" y="376"/>
      <point x="251" y="343" type="curve" smooth="yes"/>
      <point x="26" y="228" type="line"/>
      <point x="26" y="173" type="line"/>
      <point x="277" y="302" type="line" smooth="yes"/>
      <point x="369" y="349"/>
      <point x="399" y="398"/>
      <point x="399" y="501" type="curve" smooth="yes"/>
      <point x="399" y="634"/>
      <point x="348" y="700"/>
      <point x="249" y="700" type="curve" smooth="yes"/>
      <point x="129" y="700"/>
      <point x="92" y="627"/>
      <point x="92" y="345" type="curve" smooth="yes"/>
      <point x="92" y="70"/>
      <point x="134" y="-10"/>
    </contour>
  </outline>
</glyph>
<glyph name="trademark" format="1">
  <advance width="722"/>
  <unicode hex="2122"/>
  <outline>
    <contour>
      <point x="134" y="304" type="line"/>
      <point x="184" y="304" type="line"/>
      <point x="184" y="651" type="line"/>
      <point x="240" y="651" type="line"/>
      <point x="240" y="566" type="line"/>
      <point x="283" y="566" type="line"/>
      <point x="283" y="690" type="line"/>
      <point x="36" y="690" type="line"/>
      <point x="36" y="566" type="line"/>
      <point x="78" y="566" type="line"/>
      <point x="78" y="651" type="line"/>
      <point x="134" y="651" type="line"/>
    </contour>
    <contour>
      <point x="329" y="304" type="line"/>
      <point x="378" y="304" type="line"/>
      <point x="378" y="646" type="line"/>
      <point x="390" y="646" type="line"/>
      <point x="472" y="304" type="line"/>
      <point x="516" y="304" type="line"/>
      <point x="598" y="646" type="line"/>
      <point x="610" y="646" type="line"/>
      <point x="610" y="304" type="line"/>
      <point x="661" y="304" type="line"/>
      <point x="661" y="690" type="line"/>
      <point x="567" y="690" type="line"/>
      <point x="501" y="422" type="line"/>
      <point x="489" y="422" type="line"/>
      <point x="422" y="690" type="line"/>
      <point x="329" y="690" type="line"/>
    </contour>
  </outline>
</glyph>
<glyph name="increment" format="1">
  <advance width="432"/>
  <unicode hex="2206"/>
  <outline>
    <contour>
      <point x="36" y="0" type="line"/>
      <point x="396" y="0" type="line"/>
      <point x="396" y="51" type="line"/>
      <point x="272" y="690" type="line"/>
      <point x="159" y="690" type="line"/>
      <point x="36" y="51" type="line"/>
    </contour>
    <contour>
      <point x="96" y="51" type="line"/>
      <point x="206" y="635" type="line"/>
      <point x="224" y="635" type="line"/>
      <point x="334" y="51" type="line"/>
    </contour>
  </outline>
</glyph>
<glyph name="integral" format="1">
  <advance width="261"/>
  <unicode hex="222B"/>
  <outline>
    <contour>
      <point x="19" y="0" type="line"/>
      <point x="112" y="0" type="line" smooth="yes"/>
      <point x="141" y="0"/>
      <point x="156" y="15"/>
      <point x="156" y="44" type="curve" smooth="yes"/>
      <point x="156" y="639" type="line"/>
      <point x="241" y="639" type="line"/>
      <point x="241" y="690" type="line"/>
      <point x="148" y="690" type="line" smooth="yes"/>
      <point x="119" y="690"/>
      <point x="104" y="675"/>
      <point x="104" y="646" type="curve" smooth="yes"/>
      <point x="104" y="51" type="line"/>
      <point x="19" y="51" type="line"/>
    </contour>
  </outline>
</glyph>
<glyph name="greaterequal" format="1">
  <advance width="384"/>
  <unicode hex="2265"/>
  <outline>
    <contour>
      <point x="35" y="180" type="line"/>
      <point x="352" y="313" type="line"/>
      <point x="352" y="384" type="line"/>
      <point x="35" y="517" type="line"/>
      <point x="35" y="464" type="line"/>
      <point x="299" y="357" type="line"/>
      <point x="299" y="339" type="line"/>
      <point x="35" y="233" type="line"/>
    </contour>
    <contour>
      <point x="35" y="62" type="line"/>
      <point x="352" y="62" type="line"/>
      <point x="352" y="111" type="line"/>
      <point x="35" y="111" type="line"/>
    </contour>
  </outline>
</glyph>
<glyph name="lozenge" format="1">
  <advance width="459"/>
  <unicode hex="25CA"/>
  <outline>
    <contour>
      <point x="196" y="0" type="line"/>
      <point x="270" y="0" type="line"/>
      <point x="419" y="345" type="line"/>
      <point x="270" y="690" type="line"/>
      <point x="196" y="690" type="line"/>
      <point x="39" y="345" type="line"/>
    </contour>
    <contour>
      <point x="223" y="57" type="line"/>
      <point x="99" y="345" type="line"/>
      <point x="223" y="633" type="line"/>
      <point x="241" y="633" type="line"/>
      <point x="360" y="345" type="line"/>
      <point x="241" y="57" type="line"/>
    </contour>
  </outline>
</glyph>
<glyph name="fl" format="1">
  <advance width="478"/>
  <unicode hex="FB02"/>
  <outline>
    <contour>
      <point x="93" y="645" type="curve" smooth="yes"/>
      <point x="93" y="0" type="line"/>
      <point x="150" y="0" type="line"/>
      <point x="150" y="641" type="line"/>
      <point x="253" y="641" type="line"/>
      <point x="253" y="690" type="line"/>
      <point x="137" y="690" type="line" smooth="yes"/>
      <point x="108" y="690"/>
      <point x="93" y="675"/>
    </contour>
    <contour>
      <point x="28" y="0" type="line"/>
      <point x="240" y="0" type="line"/>
      <point x="240" y="49" type="line"/>
      <point x="28" y="49" type="line"/>
    </contour>
    <contour>
      <point x="23" y="485" type="line"/>
      <point x="253" y="485" type="line"/>
      <point x="253" y="534" type="line"/>
      <point x="23" y="534" type="line"/>
    </contour>
    <contour>
      <point x="347" y="0" type="line"/>
      <point x="405" y="0" type="line"/>
      <point x="405" y="690" type="line"/>
      <point x="285" y="690" type="line"/>
      <point x="285" y="641" type="line"/>
      <point x="347" y="641" type="line"/>
    </contour>
    <contour>
      <point x="229" y="690" type="line"/>
      <point x="229" y="641" type="line"/>
      <point x="314" y="641" type="line"/>
      <point x="314" y="690" type="line"/>
    </contour>
  </outline>
</glyph>
<glyph name="personalComputer" format="1">
  <advance width="656"/>
  <unicode hex="1F4BB"/>
  <outline>
    <contour>
      <point x="474" y="0" type="line"/>
      <point x="531" y="0" type="line"/>
      <point x="651" y="690" type="line"/>
      <point x="594" y="690" type="line"/>
    </contour>
    <contour>
      <point x="64" y="0" type="line"/>
      <point x="141" y="0" type="line"/>
      <point x="141" y="76" type="line"/>
      <point x="64" y="76" type="line"/>
    </contour>
    <contour>
      <point x="64" y="458" type="line"/>
      <point x="141" y="458" type="line"/>
      <point x="141" y="534" type="line"/>
      <point x="64" y="534" type="line"/>
    </contour>
    <contour>
      <point x="250" y="0" type="line"/>
      <point x="306" y="0" type="line"/>
      <point x="426" y="690" type="line"/>
      <point x="369" y="690" type="line"/>
    </contour>
  </outline>
</glyph>
<glyph name="A.ss03" format="1">
  <advance width="434"/>
  <outline>
    <contour>
      <point x="27" y="0" type="line"/>
      <point x="87" y="0" type="line"/>
      <point x="207" y="635" type="line"/>
      <point x="225" y="635" type="line"/>
      <point x="344" y="0" type="line"/>
      <point x="406" y="0" type="line"/>
      <point x="273" y="690" type="line"/>
      <point x="160" y="690" type="line"/>
    </contour>
    <contour>
      <point x="91" y="189" type="line"/>
      <point x="341" y="189" type="line"/>
      <point x="336" y="237" type="line"/>
      <point x="95" y="237" type="line"/>
    </contour>
    <contour>
      <point x="406" y="0" type="move" name="ogonek"/>
    </contour>
    <contour>
      <point x="216" y="690" type="move" name="top"/>
    </contour>
  </outline>
</glyph>
<glyph name="B.ss03" format="1">
  <advance width="450"/>
  <outline>
    <contour>
      <point x="72" y="0" type="line"/>
      <point x="254" y="0" type="line" smooth="yes"/>
      <point x="355" y="0"/>
      <point x="403" y="63"/>
      <point x="403" y="189" type="curve" smooth="yes"/>
      <point x="403" y="289"/>
      <point x="375" y="335"/>
      <point x="310" y="343" type="curve"/>
      <point x="310" y="361" type="line"/>
      <point x="372" y="369"/>
      <point x="398" y="410"/>
      <point x="398" y="508" type="curve" smooth="yes"/>
      <point x="398" y="633"/>
      <point x="351" y="690"/>
      <point x="251" y="690" type="curve"/>
      <point x="72" y="690" type="line"/>
    </contour>
    <contour>
      <point x="250" y="51" type="curve" smooth="yes"/>
      <point x="131" y="51" type="line"/>
      <point x="131" y="328" type="line"/>
      <point x="250" y="328" type="line" smooth="yes"/>
      <point x="312" y="328"/>
      <point x="341" y="294"/>
      <point x="341" y="223" type="curve" smooth="yes"/>
      <point x="341" y="155" type="line" smooth="yes"/>
      <point x="341" y="85"/>
      <point x="312" y="51"/>
    </contour>
    <contour>
      <point x="246" y="376" type="curve" smooth="yes"/>
      <point x="131" y="376" type="line"/>
      <point x="131" y="639" type="line"/>
      <point x="246" y="639" type="line" smooth="yes"/>
      <point x="307" y="639"/>
      <point x="336" y="606"/>
      <point x="336" y="537" type="curve" smooth="yes"/>
      <point x="336" y="479" type="line" smooth="yes"/>
      <point x="336" y="410"/>
      <point x="307" y="376"/>
    </contour>
  </outline>
</glyph>
<glyph name="D.ss03" format="1">
  <advance width="471"/>
  <outline>
    <contour>
      <point x="71" y="0" type="line"/>
      <point x="238" y="0" type="line" smooth="yes"/>
      <point x="374" y="0"/>
      <point x="422" y="76"/>
      <point x="422" y="345" type="curve" smooth="yes"/>
      <point x="422" y="614"/>
      <point x="374" y="690"/>
      <point x="238" y="690" type="curve" smooth="yes"/>
      <point x="71" y="690" type="line"/>
    </contour>
    <contour>
      <point x="233" y="51" type="curve" smooth="yes"/>
      <point x="131" y="51" type="line"/>
      <point x="131" y="639" type="line"/>
      <point x="233" y="639" type="line" smooth="yes"/>
      <point x="321" y="639"/>
      <point x="358" y="592"/>
      <point x="358" y="454" type="curve" smooth="yes"/>
      <point x="358" y="236" type="line" smooth="yes"/>
      <point x="358" y="98"/>
      <point x="321" y="51"/>
    </contour>
  </outline>
</glyph>
<glyph name="E.ss03" format="1">
  <advance width="422"/>
  <outline>
    <contour>
      <point x="318" y="494" type="line"/>
      <point x="370" y="494" type="line"/>
      <point x="370" y="690" type="line"/>
      <point x="71" y="690" type="line"/>
      <point x="71" y="0" type="line"/>
      <point x="374" y="0" type="line"/>
      <point x="374" y="200" type="line"/>
      <point x="322" y="200" type="line"/>
      <point x="322" y="51" type="line"/>
      <point x="131" y="51" type="line"/>
      <point x="131" y="328" type="line"/>
      <point x="298" y="328" type="line"/>
      <point x="298" y="376" type="line"/>
      <point x="131" y="376" type="line"/>
      <point x="131" y="639" type="line"/>
      <point x="318" y="639" type="line"/>
    </contour>
    <contour>
      <point x="374" y="0" type="move" name="ogonek"/>
    </contour>
    <contour>
      <point x="213" y="690" type="move" name="top"/>
    </contour>
  </outline>
</glyph>
<glyph name="H.ss03" format="1">
  <advance width="473"/>
  <outline>
    <contour>
      <point x="342" y="0" type="line"/>
      <point x="401" y="0" type="line"/>
      <point x="401" y="690" type="line"/>
      <point x="342" y="690" type="line"/>
    </contour>
    <contour>
      <point x="71" y="0" type="line"/>
      <point x="131" y="0" type="line"/>
      <point x="131" y="690" type="line"/>
      <point x="71" y="690" type="line"/>
    </contour>
    <contour>
      <point x="98" y="328" type="line"/>
      <point x="372" y="328" type="line"/>
      <point x="372" y="376" type="line"/>
      <point x="98" y="376" type="line"/>
    </contour>
  </outline>
</glyph>
<glyph name="L.ss03" format="1">
  <advance width="402"/>
  <outline>
    <contour>
      <point x="72" y="0" type="line"/>
      <point x="365" y="0" type="line"/>
      <point x="365" y="200" type="line"/>
      <point x="313" y="200" type="line"/>
      <point x="313" y="51" type="line"/>
      <point x="131" y="51" type="line"/>
      <point x="131" y="690" type="line"/>
      <point x="72" y="690" type="line"/>
    </contour>
    <contour>
      <point x="110" y="690" type="line"/>
      <point x="110" y="639" type="line"/>
      <point x="191" y="639" type="line"/>
      <point x="191" y="690" type="line"/>
    </contour>
  </outline>
</glyph>
<glyph name="N.ss03" format="1">
  <advance width="483"/>
  <outline>
    <contour>
      <point x="71" y="0" type="line"/>
      <point x="129" y="0" type="line"/>
      <point x="129" y="492" type="line" smooth="yes"/>
      <point x="129" y="523"/>
      <point x="126" y="555"/>
      <point x="119" y="618" type="curve"/>
      <point x="137" y="618" type="line"/>
      <point x="356" y="0" type="line"/>
      <point x="412" y="0" type="line"/>
      <point x="412" y="690" type="line"/>
      <point x="354" y="690" type="line"/>
      <point x="354" y="326" type="line" smooth="yes"/>
      <point x="354" y="295"/>
      <point x="357" y="263"/>
      <point x="364" y="200" type="curve"/>
      <point x="346" y="200" type="line"/>
      <point x="166" y="690" type="line"/>
      <point x="71" y="690" type="line"/>
    </contour>
    <contour>
      <point x="241" y="690" type="move" name="top"/>
    </contour>
  </outline>
</glyph>
<glyph name="U.ss03" format="1">
  <advance width="478"/>
  <outline>
    <contour>
      <point x="211" y="-10" type="curve" smooth="yes"/>
      <point x="275" y="-10"/>
      <point x="315" y="17"/>
      <point x="336" y="78" type="curve"/>
      <point x="354" y="78" type="line"/>
      <point x="354" y="45" type="line" smooth="yes"/>
      <point x="354" y="15"/>
      <point x="369" y="0"/>
      <point x="399" y="0" type="curve" smooth="yes"/>
      <point x="461" y="0" type="line"/>
      <point x="461" y="51" type="line"/>
      <point x="402" y="51" type="line"/>
      <point x="402" y="690" type="line"/>
      <point x="342" y="690" type="line"/>
      <point x="342" y="195" type="line" smooth="yes"/>
      <point x="342" y="88"/>
      <point x="310" y="45"/>
      <point x="235" y="45" type="curve" smooth="yes"/>
      <point x="159" y="45"/>
      <point x="128" y="88"/>
      <point x="128" y="195" type="curve" smooth="yes"/>
      <point x="128" y="690" type="line"/>
      <point x="68" y="690" type="line"/>
      <point x="68" y="180" type="line" smooth="yes"/>
      <point x="68" y="52"/>
      <point x="116" y="-10"/>
    </contour>
    <contour>
      <point x="235" y="690" type="move" name="top"/>
    </contour>
  </outline>
</glyph>
<glyph name=".notdef" format="1">
  <advance width="461"/>
  <outline>
    <contour>
      <point x="75" y="0" type="line"/>
      <point x="386" y="0" type="line"/>
      <point x="386" y="690" type="line"/>
      <point x="75" y="690" type="line"/>
    </contour>
    <contour>
      <point x="127" y="49" type="line"/>
      <point x="127" y="641" type="line"/>
      <point x="334" y="641" type="line"/>
      <point x="334" y="49" type="line"/>
    </contour>
  </outline>
</glyph>
<glyph name="aacute.ss01" format="1">
  <advance width="444"/>
  <note>
aacute
</note>
  <outline>
    <component base="a.ss01"/>
    <component base="acutecomb" xOffset="7"/>
    <contour>
      <point x="419" y="0" type="move" name="ogonek"/>
    </contour>
    <contour>
      <point x="207" y="534" type="move" name="top"/>
    </contour>
  </outline>
</glyph>
<glyph name="dieresiscomb.narrow" format="1">
  <advance width="0"/>
  <outline>
    <contour>
      <point x="103" y="617" type="line"/>
      <point x="178" y="617" type="line"/>
      <point x="178" y="690" type="line"/>
      <point x="103" y="690" type="line"/>
    </contour>
    <contour>
      <point x="222" y="617" type="line"/>
      <point x="297" y="617" type="line"/>
      <point x="297" y="690" type="line"/>
      <point x="222" y="690" type="line"/>
    </contour>
    <contour>
      <point x="200" y="534" type="move" name="_top"/>
    </contour>
  </outline>
</glyph>
<glyph name="f_f_l" format="1">
  <advance width="750"/>
  <outline>
    <contour>
      <point x="93" y="645" type="curve" smooth="yes"/>
      <point x="93" y="0" type="line"/>
      <point x="150" y="0" type="line"/>
      <point x="150" y="641" type="line"/>
      <point x="253" y="641" type="line"/>
      <point x="253" y="690" type="line"/>
      <point x="137" y="690" type="line" smooth="yes"/>
      <point x="108" y="690"/>
      <point x="93" y="675"/>
    </contour>
    <contour>
      <point x="28" y="0" type="line"/>
      <point x="240" y="0" type="line"/>
      <point x="240" y="49" type="line"/>
      <point x="28" y="49" type="line"/>
    </contour>
    <contour>
      <point x="23" y="485" type="line"/>
      <point x="253" y="485" type="line"/>
      <point x="253" y="534" type="line"/>
      <point x="23" y="534" type="line"/>
    </contour>
    <contour>
      <point x="365" y="645" type="curve" smooth="yes"/>
      <point x="365" y="0" type="line"/>
      <point x="422" y="0" type="line"/>
      <point x="422" y="641" type="line"/>
      <point x="525" y="641" type="line"/>
      <point x="525" y="690" type="line"/>
      <point x="410" y="690" type="line" smooth="yes"/>
      <point x="380" y="690"/>
      <point x="365" y="675"/>
    </contour>
    <contour>
      <point x="300" y="0" type="line"/>
      <point x="512" y="0" type="line"/>
      <point x="512" y="49" type="line"/>
      <point x="300" y="49" type="line"/>
    </contour>
    <contour>
      <point x="295" y="485" type="line"/>
      <point x="525" y="485" type="line"/>
      <point x="525" y="534" type="line"/>
      <point x="295" y="534" type="line"/>
    </contour>
    <contour>
      <point x="198" y="485" type="line"/>
      <point x="363" y="485" type="line"/>
      <point x="363" y="534" type="line"/>
      <point x="198" y="534" type="line"/>
    </contour>
    <contour>
      <point x="620" y="0" type="line"/>
      <point x="677" y="0" type="line"/>
      <point x="677" y="690" type="line"/>
      <point x="557" y="690" type="line"/>
      <point x="557" y="641" type="line"/>
      <point x="620" y="641" type="line"/>
    </contour>
    <contour>
      <point x="488" y="641" type="line"/>
      <point x="572" y="641" type="line"/>
      <point x="572" y="690" type="line"/>
      <point x="488" y="690" type="line"/>
    </contour>
  </outline>
</glyph>
<glyph name="f_j" format="1">
  <advance width="479"/>
  <outline>
    <contour>
      <point x="93" y="645" type="curve" smooth="yes"/>
      <point x="93" y="0" type="line"/>
      <point x="150" y="0" type="line"/>
      <point x="150" y="641" type="line"/>
      <point x="253" y="641" type="line"/>
      <point x="253" y="690" type="line"/>
      <point x="137" y="690" type="line" smooth="yes"/>
      <point x="108" y="690"/>
      <point x="93" y="675"/>
    </contour>
    <contour>
      <point x="28" y="0" type="line"/>
      <point x="240" y="0" type="line"/>
      <point x="240" y="49" type="line"/>
      <point x="28" y="49" type="line"/>
    </contour>
    <contour>
      <point x="23" y="485" type="line"/>
      <point x="253" y="485" type="line"/>
      <point x="253" y="534" type="line"/>
      <point x="23" y="534" type="line"/>
    </contour>
    <contour>
      <point x="285" y="-132" type="line"/>
      <point x="366" y="-132" type="line" smooth="yes"/>
      <point x="395" y="-132"/>
      <point x="411" y="-117"/>
      <point x="411" y="-87" type="curve" smooth="yes"/>
      <point x="411" y="534" type="line"/>
      <point x="290" y="534" type="line"/>
      <point x="290" y="485" type="line"/>
      <point x="353" y="485" type="line"/>
      <point x="353" y="-83" type="line"/>
      <point x="285" y="-83" type="line"/>
    </contour>
    <contour>
      <point x="343" y="617" type="line"/>
      <point x="417" y="617" type="line"/>
      <point x="417" y="690" type="line"/>
      <point x="343" y="690" type="line"/>
    </contour>
    <contour>
      <point x="231" y="534" type="line"/>
      <point x="231" y="485" type="line"/>
      <point x="314" y="485" type="line"/>
      <point x="314" y="534" type="line"/>
    </contour>
  </outline>
</glyph>
<glyph name="f_k" format="1">
  <advance width="696"/>
  <outline>
    <contour>
      <point x="93" y="645" type="curve" smooth="yes"/>
      <point x="93" y="0" type="line"/>
      <point x="150" y="0" type="line"/>
      <point x="150" y="641" type="line"/>
      <point x="253" y="641" type="line"/>
      <point x="253" y="690" type="line"/>
      <point x="137" y="690" type="line" smooth="yes"/>
      <point x="108" y="690"/>
      <point x="93" y="675"/>
    </contour>
    <contour>
      <point x="28" y="0" type="line"/>
      <point x="240" y="0" type="line"/>
      <point x="240" y="49" type="line"/>
      <point x="28" y="49" type="line"/>
    </contour>
    <contour>
      <point x="23" y="485" type="line"/>
      <point x="253" y="485" type="line"/>
      <point x="253" y="534" type="line"/>
      <point x="23" y="534" type="line"/>
    </contour>
    <contour>
      <point x="339" y="0" type="line"/>
      <point x="397" y="0" type="line"/>
      <point x="397" y="253" type="line"/>
      <point x="454" y="253" type="line"/>
      <point x="595" y="0" type="line"/>
      <point x="687" y="0" type="line"/>
      <point x="687" y="49" type="line"/>
      <point x="634" y="49" type="line"/>
      <point x="488" y="309" type="line"/>
      <point x="491" y="256" type="line"/>
      <point x="672" y="534" type="line"/>
      <point x="604" y="534" type="line"/>
      <point x="454" y="299" type="line"/>
      <point x="397" y="299" type="line"/>
      <point x="397" y="690" type="line"/>
      <point x="286" y="690" type="line"/>
      <point x="286" y="641" type="line"/>
      <point x="339" y="641" type="line"/>
    </contour>
    <contour>
      <point x="228" y="690" type="line"/>
      <point x="228" y="641" type="line"/>
      <point x="313" y="641" type="line"/>
      <point x="313" y="690" type="line"/>
    </contour>
  </outline>
</glyph>
<glyph name="f_t" format="1">
  <advance width="537"/>
  <outline>
    <contour>
      <point x="93" y="645" type="curve" smooth="yes"/>
      <point x="93" y="0" type="line"/>
      <point x="150" y="0" type="line"/>
      <point x="150" y="641" type="line"/>
      <point x="253" y="641" type="line"/>
      <point x="253" y="690" type="line"/>
      <point x="137" y="690" type="line" smooth="yes"/>
      <point x="108" y="690"/>
      <point x="93" y="675"/>
    </contour>
    <contour>
      <point x="28" y="0" type="line"/>
      <point x="240" y="0" type="line"/>
      <point x="240" y="49" type="line"/>
      <point x="28" y="49" type="line"/>
    </contour>
    <contour>
      <point x="23" y="485" type="line"/>
      <point x="253" y="485" type="line"/>
      <point x="253" y="534" type="line"/>
      <point x="23" y="534" type="line"/>
    </contour>
    <contour>
      <point x="403" y="0" type="curve" smooth="yes"/>
      <point x="511" y="0" type="line"/>
      <point x="511" y="49" type="line"/>
      <point x="416" y="49" type="line"/>
      <point x="416" y="634" type="line"/>
      <point x="383" y="634" type="line"/>
      <point x="358" y="534" type="line"/>
      <point x="358" y="45" type="line" smooth="yes"/>
      <point x="358" y="15"/>
      <point x="374" y="0"/>
    </contour>
    <contour>
      <point x="285" y="485" type="line"/>
      <point x="511" y="485" type="line"/>
      <point x="511" y="534" type="line"/>
      <point x="285" y="534" type="line"/>
    </contour>
    <contour>
      <point x="229" y="534" type="line"/>
      <point x="229" y="485" type="line"/>
      <point x="311" y="485" type="line"/>
      <point x="311" y="534" type="line"/>
    </contour>
  </outline>
</glyph>
<glyph name="f_thorn" format="1">
  <advance width="705"/>
  <outline>
    <contour>
      <point x="93" y="645" type="curve" smooth="yes"/>
      <point x="93" y="0" type="line"/>
      <point x="150" y="0" type="line"/>
      <point x="150" y="641" type="line"/>
      <point x="253" y="641" type="line"/>
      <point x="253" y="690" type="line"/>
      <point x="137" y="690" type="line" smooth="yes"/>
      <point x="108" y="690"/>
      <point x="93" y="675"/>
    </contour>
    <contour>
      <point x="28" y="0" type="line"/>
      <point x="240" y="0" type="line"/>
      <point x="240" y="49" type="line"/>
      <point x="28" y="49" type="line"/>
    </contour>
    <contour>
      <point x="23" y="485" type="line"/>
      <point x="253" y="485" type="line"/>
      <point x="253" y="534" type="line"/>
      <point x="23" y="534" type="line"/>
    </contour>
    <contour>
      <point x="337" y="-132" type="line"/>
      <point x="395" y="-132" type="line"/>
      <point x="395" y="-55" type="line" smooth="yes"/>
      <point x="395" y="-24"/>
      <point x="392" y="8"/>
      <point x="385" y="71" type="curve"/>
      <point x="403" y="71" type="line"/>
      <point x="424" y="16"/>
      <point x="459" y="-10"/>
      <point x="515" y="-10" type="curve" smooth="yes"/>
      <point x="615" y="-10"/>
      <point x="662" y="73"/>
      <point x="662" y="267" type="curve" smooth="yes"/>
      <point x="662" y="461"/>
      <point x="615" y="544"/>
      <point x="515" y="544" type="curve" smooth="yes"/>
      <point x="459" y="544"/>
      <point x="424" y="518"/>
      <point x="403" y="463" type="curve"/>
      <point x="385" y="463" type="line"/>
      <point x="392" y="526"/>
      <point x="395" y="558"/>
      <point x="395" y="589" type="curve" smooth="yes"/>
      <point x="395" y="690" type="line"/>
      <point x="285" y="690" type="line"/>
      <point x="285" y="641" type="line"/>
      <point x="337" y="641" type="line"/>
    </contour>
    <contour>
      <point x="498" y="43" type="curve" smooth="yes"/>
      <point x="425" y="43"/>
      <point x="395" y="92"/>
      <point x="395" y="213" type="curve" smooth="yes"/>
      <point x="395" y="321" type="line" smooth="yes"/>
      <point x="395" y="442"/>
      <point x="425" y="491"/>
      <point x="498" y="491" type="curve" smooth="yes"/>
      <point x="570" y="491"/>
      <point x="600" y="442"/>
      <point x="600" y="321" type="curve" smooth="yes"/>
      <point x="600" y="213" type="line" smooth="yes"/>
      <point x="600" y="92"/>
      <point x="570" y="43"/>
    </contour>
    <contour>
      <point x="228" y="690" type="line"/>
      <point x="228" y="641" type="line"/>
      <point x="312" y="641" type="line"/>
      <point x="312" y="690" type="line"/>
    </contour>
  </outline>
</glyph>
<glyph name="g.ss02" format="1">
  <advance width="439"/>
  <outline>
    <contour>
      <point x="213" y="-142" type="curve" smooth="yes"/>
      <point x="313" y="-142"/>
      <point x="367" y="-90"/>
      <point x="367" y="6" type="curve" smooth="yes"/>
      <point x="367" y="485" type="line"/>
      <point x="420" y="485" type="line"/>
      <point x="420" y="534" type="line"/>
      <point x="321" y="534" type="line"/>
      <point x="321" y="457" type="line"/>
      <point x="303" y="457" type="line"/>
      <point x="284" y="516"/>
      <point x="247" y="544"/>
      <point x="190" y="544" type="curve" smooth="yes"/>
      <point x="90" y="544"/>
      <point x="42" y="461"/>
      <point x="42" y="291" type="curve" smooth="yes"/>
      <point x="42" y="122"/>
      <point x="90" y="40"/>
      <point x="190" y="40" type="curve" smooth="yes"/>
      <point x="246" y="40"/>
      <point x="283" y="65"/>
      <point x="302" y="118" type="curve"/>
      <point x="319" y="118" type="line"/>
      <point x="313" y="70"/>
      <point x="310" y="47"/>
      <point x="310" y="14" type="curve" smooth="yes"/>
      <point x="309" y="-56"/>
      <point x="277" y="-89"/>
      <point x="211" y="-89" type="curve" smooth="yes"/>
      <point x="151" y="-89"/>
      <point x="119" y="-57"/>
      <point x="119" y="-7" type="curve"/>
      <point x="119" y="-7" type="line"/>
      <point x="63" y="-7" type="line"/>
      <point x="78" y="-99"/>
      <point x="127" y="-142"/>
    </contour>
    <contour>
      <point x="208" y="91" type="curve" smooth="yes"/>
      <point x="135" y="91"/>
      <point x="104" y="140"/>
      <point x="104" y="256" type="curve" smooth="yes"/>
      <point x="104" y="326" type="line" smooth="yes"/>
      <point x="104" y="442"/>
      <point x="135" y="491"/>
      <point x="208" y="491" type="curve" smooth="yes"/>
      <point x="280" y="491"/>
      <point x="309" y="442"/>
      <point x="309" y="326" type="curve" smooth="yes"/>
      <point x="309" y="256" type="line" smooth="yes"/>
      <point x="309" y="140"/>
      <point x="280" y="91"/>
    </contour>
  </outline>
</glyph>
<glyph name="questiondown.case" format="1">
  <advance width="394"/>
  <outline>
    <contour>
      <point x="229" y="435" type="curve" smooth="yes"/>
      <point x="226" y="528" type="line"/>
      <point x="191" y="528" type="line"/>
      <point x="188" y="453" type="line" smooth="yes"/>
      <point x="186" y="412"/>
      <point x="171" y="386"/>
      <point x="138" y="366" type="curve" smooth="yes"/>
      <point x="63" y="323"/>
      <point x="35" y="277"/>
      <point x="35" y="193" type="curve" smooth="yes"/>
      <point x="35" y="165" type="line" smooth="yes"/>
      <point x="35" y="49"/>
      <point x="90" y="-10"/>
      <point x="199" y="-10" type="curve" smooth="yes"/>
      <point x="308" y="-10"/>
      <point x="355" y="52"/>
      <point x="365" y="226" type="curve"/>
      <point x="305" y="226" type="line"/>
      <point x="305" y="206" type="line" smooth="yes"/>
      <point x="305" y="92"/>
      <point x="272" y="45"/>
      <point x="199" y="45" type="curve" smooth="yes"/>
      <point x="131" y="45"/>
      <point x="93" y="83"/>
      <point x="93" y="161" type="curve" smooth="yes"/>
      <point x="93" y="198" type="line" smooth="yes"/>
      <point x="93" y="253"/>
      <point x="112" y="279"/>
      <point x="167" y="316" type="curve" smooth="yes"/>
      <point x="216" y="354"/>
      <point x="231" y="381"/>
    </contour>
    <contour>
      <point x="247" y="690" type="line"/>
      <point x="170" y="690" type="line"/>
      <point x="170" y="614" type="line"/>
      <point x="247" y="614" type="line"/>
    </contour>
  </outline>
</glyph>
